<?xml version="1.0" encoding="utf-8"?>
<!-- Generator: Adobe Illustrator 19.0.0, SVG Export Plug-In . SVG Version: 6.00 Build 0)  -->
<svg version="1.1" xmlns="http://www.w3.org/2000/svg" xmlns:xlink="http://www.w3.org/1999/xlink" x="0px" y="0px"
	 viewBox="240 -239 511 511" style="enable-background:new 240 -239 511 511;" xml:space="preserve">
<style type="text/css">
	.st0{fill:#8AC129;}
	.st1{fill:#FF4C4C;}
	.st2{fill:#FFBF14;}
	.st3{fill:#E0A812;}
	.st4{fill:#45748C;}
	.st5{fill:#3A6175;}
	.st6{display:none;}
	.st7{display:inline;fill:#E0F7FA;}
	.st8{display:inline;fill:#4DD0E1;}
	.st9{display:inline;fill:#4CAF50;}
	.st10{display:inline;}
	.st11{fill:#4CAF50;}
</style>
<g id="Layer_1">
	<path class="st0" d="M518.7,118.2c-2,0-3.9-0.8-5.5-2.3L396-1.3c-3-3-3-7.9,0-10.9c3-3,7.9-3,10.9,0l117.2,117.2c3,3,3,7.9,0,10.9
		C522.6,117.5,520.6,118.2,518.7,118.2z"/>
	<path class="st1" d="M568.6,98.3c-2,0-4-0.8-5.5-2.3l-147-147c-3-3-3-7.9,0-10.9c3-3,7.9-3,10.9,0l147,147c3,3,3,7.9,0,10.9
		C572.6,97.6,570.6,98.3,568.6,98.3z"/>
	<path class="st0" d="M588.5,48.4c-2,0-4-0.8-5.5-2.3L465.8-71.1c-3-3-3-7.9,0-10.9c3-3,7.9-3,10.9,0L594,35.2c3,3,3,7.9,0,10.9
		C592.5,47.6,590.5,48.4,588.5,48.4z"/>
	<path class="st1" d="M706.2-73.7c-2,0-3.9-0.8-5.5-2.3L589.1-187.6c-3-3-3-7.9,0-10.9c3-3,7.9-3,10.9,0L711.7-86.9
		c3,3,3,7.9,0,10.9C710.2-74.5,708.2-73.7,706.2-73.7z"/>
	<path class="st1" d="M396.6,235.9c-2,0-4-0.8-5.5-2.3L279.4,122c-3-3-3-7.9,0-10.9c3-3,7.9-3,10.9,0L402,222.7c3,3,3,7.9,0,10.9
		C400.5,235.2,398.5,235.9,396.6,235.9z"/>
	<path class="st2" d="M382,86.2c-47.5-9-97-10.4-137.1,29.6c-6.6,6.7-6.7,17.4,0,24.1c6.7,6.7,17.4,6.6,24.1,0
		c32.4-32.4,73.8-27.7,121.3-17.2C387.7,110.4,384.7,98.2,382,86.2z"/>
	<path class="st3" d="M382,86.2c-7.1-1.3-14.2-2.5-21.3-3.4c2.6,11.8,5.4,23.5,8.1,35.5c7,1.2,14.2,2.7,21.6,4.3
		C387.7,110.3,384.7,98.2,382,86.2z"/>
	<path class="st2" d="M617.9-208.9c6.7-6.7,6.7-17.4,0-24.1c-6.6-6.7-17.4-6.6-24.1,0c-95,95,43.1,236.8-34.4,314.4
		c-36.7,36.7-84.8,25.8-140.5,12.8c2.8,12.2,5.7,24.6,8,36.8c53.3,11.9,111.1,20,156.6-25.5C678.6,10.2,540.4-131.4,617.9-208.9z"/>
	<path class="st3" d="M426.8,131c6.4,1.4,12.8,2.8,19.3,4c-2.2-12.2-4.9-24.2-7.7-36.3c-6.4-1.4-12.9-2.9-19.6-4.5
		C421.7,106.4,424.5,118.7,426.8,131z"/>
	<path class="st4" d="M572.2-59.2c-2.8-12.2-5.7-24.7-8-36.8c-53.3-11.9-111.1-20-156.6,25.5c-94.8,94.8,42.8,237.1-34.4,314.4
		c-6.7,6.6-6.7,17.4,0,24.1c6.7,6.7,17.4,6.7,24.1,0c95.6-95.6-43.5-236.4,34.4-314.4C468.4-83.1,516.5-72.1,572.2-59.2z"/>
	<path class="st5" d="M564.2-96c-6.5-1.5-13.1-2.8-19.7-4.1c2.1,12.2,4.8,24.2,7.6,36.3c6.6,1.4,13.3,3,20.2,4.6
		C569.3-71.4,566.5-83.9,564.2-96z"/>
	<path class="st4" d="M746-104.9c-6.7-6.7-17.4-6.7-24.1,0c-32.4,32.4-73.8,27.7-121.3,17.2c2.7,12.4,5.7,24.4,8.3,36.4
		c52.6,9.9,99.2,8.2,137.1-29.6C752.7-87.4,752.7-98.2,746-104.9z"/>
	<path class="st5" d="M619.5-83.8c-6.2-1.1-12.5-2.4-18.9-3.8c2.7,12.4,5.7,24.4,8.3,36.4c6.2,1.2,12.4,2.2,18.7,3.1
		C625.1-59.7,622.2-71.8,619.5-83.8z"/>
</g>
<g id="Layer_2" class="st6">
	<path class="st7" d="M699.6-112.3L546.4,41c13,29.3,16.2,61.8,9.4,92.6H538c-27.8,0-54.9-7.8-78.6-22.6l-13-8.1
		c-23.5-14.8-50.8-22.6-78.6-22.6c-21.1,0-42.1-4.6-61.3-13.3l-36.2-16.4c7.1-19.9,18.7-38.5,34.6-54.4
		c44.9-44.9,111.3-55,166.1-30.7l153.3-153.2L699.6-112.3z"/>
	<path class="st8" d="M538,133.6h17.8c-5.7,26.9-19.2,52.6-40,73.5c-38.3,38.3-92.4,51.4-141.5,39.3L265.7,137.8
		c-7.1-28.7-5.5-59.1,4.7-87.1l36.2,16.4c19.3,8.7,40.2,13.3,61.3,13.3c27.8,0,55,7.8,78.6,22.6l13,8.1
		C483,125.8,510.2,133.6,538,133.6z"/>
	<path class="st9" d="M244.8,142c0.1,0.3,0.1,0.6,0.2,0.9c0.2,0.6,0.4,1.2,0.6,1.8c0.2,0.5,0.3,0.9,0.5,1.4c0.5,1.2,1.1,2.4,1.8,3.4
		c0.7,1.1,1.6,2.1,2.5,3.1c0.1,0.1,0.1,0.2,0.2,0.2l108.6,108.6c0.3,0.3,0.7,0.5,1,0.8c0.6,0.5,1.2,1.1,1.9,1.5
		c0.6,0.4,1.1,0.7,1.7,1c0.6,0.4,1.2,0.7,1.9,1c0.7,0.3,1.5,0.6,2.2,0.8c0.4,0.1,0.8,0.3,1.3,0.5c0.3,0.1,0.6,0.1,0.9,0.2
		c0.1,0,0.1,0,0.2,0c13.1,3.1,26.3,4.7,39.5,4.7c44.8,0,88.8-17.6,121-49.8c23.2-23.2,39-52.2,45.8-83.9c0-0.1,0-0.2,0-0.2
		c0-0.1,0-0.2,0-0.2c6.6-30.2,4.6-62.2-5.4-91.5L699.6-82.2l15.1,15.1c4.2,4.2,9.6,6.2,15,6.2c5.5,0,10.9-2.1,15.1-6.2
		c8.3-8.3,8.3-21.8,0-30.1l-30.1-30.1c0,0,0,0,0,0c0,0,0,0,0,0l-75.2-75.2c0,0,0,0,0,0c0,0,0,0,0,0l-30.1-30.1
		c-8.3-8.3-21.8-8.3-30.1,0c-8.3,8.3-8.3,21.8,0,30.1l15.1,15.1L465.8-59.2c-60.9-20.9-129.9-5.5-175.9,40.4
		C272.5-1.3,259.4,19.1,251,41.7c0,0.1-0.1,0.1-0.1,0.2c0,0.1-0.1,0.2-0.1,0.3c-0.1,0.4-0.4,0.8-0.5,1.2
		c-11.6,31.7-13.5,65.6-5.6,98.3C244.8,141.8,244.8,141.9,244.8,142z M384.6,226.6l-99.5-99.4c-3.1-15.5-3.4-31.3-0.7-46.7l13.3,6
		c22,10,46.2,15.2,70.1,15.2c23.9,0,47.2,6.7,67.3,19.4l12.9,8.1c23.7,14.9,50.7,23.6,78.5,25.4c-6.2,13.9-15,26.6-25.9,37.5
		C470,222.7,426.9,235.3,384.6,226.6z M462.4-14.9c0.1,0,0.2,0.1,0.3,0.1c0.8,0.3,1.6,0.6,2.4,0.8c0.6,0.2,1.1,0.4,1.7,0.5
		c0.7,0.2,1.5,0.2,2.2,0.3c0.6,0.1,1.2,0.2,1.9,0.2c0.1,0,0.1,0,0.2,0c0.7,0,1.4-0.1,2.1-0.2c0.6-0.1,1.1-0.1,1.7-0.2
		c0.9-0.2,1.7-0.4,2.6-0.7c0.4-0.1,0.9-0.2,1.4-0.4c0.8-0.3,1.5-0.7,2.2-1.1c0.5-0.3,1-0.5,1.5-0.8c0.6-0.3,1.1-0.8,1.6-1.2
		c0.6-0.5,1.2-0.9,1.8-1.4c0.1-0.1,0.2-0.1,0.3-0.2l138.2-138.1l45.2,45.2L531.3,25.9c-0.1,0.1-0.1,0.2-0.2,0.2
		c-0.6,0.6-1,1.2-1.5,1.9c-0.4,0.5-0.8,0.9-1.1,1.5c-0.4,0.6-0.6,1.2-0.9,1.7c-0.3,0.6-0.7,1.3-1,1.9c-0.2,0.6-0.3,1.2-0.5,1.7
		c-0.2,0.7-0.5,1.4-0.6,2.2c-0.1,0.7-0.1,1.4-0.2,2c-0.1,0.7-0.2,1.3-0.2,2c0,0.7,0.1,1.3,0.2,2c0.1,0.7,0.1,1.5,0.3,2.2
		c0.1,0.5,0.3,1,0.5,1.6c0.2,0.8,0.5,1.7,0.8,2.5c0,0.1,0.1,0.2,0.1,0.3c8.7,19.6,12.2,41.3,10.5,62.7c-23.6-0.1-46.6-6.8-66.7-19.3
		l-12.9-8c-26.9-16.9-58-25.8-89.9-25.8c-17.9,0-36.1-4-52.5-11.4l-16.7-7.6c5.7-10.4,12.8-20.1,21.4-28.7
		C357.1-25.8,414.3-36.3,462.4-14.9z"/>
</g>
<g id="Layer_3" class="st6">
	<g class="st10">
		<path class="st11" d="M710.2-141c-30.3-34.8-74-51.1-119.9-44.7c-33.6,4.7-65,20.3-93.5,46.4c-28.3-25.9-59.8-41.7-93.5-46.4
			c-45.9-6.5-89.5,9.8-119.8,44.7C247.3-99.4,237-39.4,255,23.7c18.1,63.1,58.4,114.6,113.9,145.9c-0.2,2.1-0.4,4.3-0.5,6.4
			c-1,12.8,3.1,25.3,11.4,35.1c8.4,9.8,20.1,15.7,32.9,16.7c1.3,0.1,2.5,0.1,3.8,0.1c19.2,0,36.1-11.5,43.8-28.1
			c12,1.6,24.3,2.4,36.7,2.4c12.3,0,24.6-0.8,36.7-2.4c7.7,16.6,24.6,28.1,43.8,28.1c1.3,0,2.6-0.1,3.8-0.1
			c26.5-2.1,46.4-25.3,44.3-51.8c-0.2-2.1-0.3-4.3-0.5-6.4c55.5-31.3,95.8-82.9,113.9-145.9C756.8-39.4,746.4-99.4,710.2-141z
			 M347.8-2.9c-8.9-31.1-5.8-58.3,8.5-74.8c8.7-10,20.3-14.3,33.6-12.4c16,2.3,32.2,11.8,47.9,27.8c-3.5,6.3-6.9,12.7-10.2,19.4
			c-16,32-29.5,69.1-39.8,107.5C369.1,46.7,355.4,23.7,347.8-2.9z M416.4,205.2c-0.7,0-1.4,0-2-0.1c-6.8-0.5-12.9-3.7-17.3-8.8
			c-4.4-5.2-6.6-11.7-6-18.5c2.3-29.3,7.2-59.8,14.3-89.8c0-0.1,0.1-0.3,0.1-0.4c10.2-43,24.8-84.8,42.5-120.3
			c1.8-3.7,3.7-7.3,5.6-10.9c9.2,12.3,18,27,26.3,43.7c1.5,3.1,3,6.2,4.5,9.4c-22.6,52-38.1,114.4-42.6,172.3
			C440.7,194.9,429.6,205.2,416.4,205.2z M516.7,104.8c-6.5,0.7-13.1,1.1-19.8,1.1c-6.7,0-13.4-0.4-19.9-1.1
			c5.3-22.5,12-44.6,19.9-65.4C504.7,60.1,511.4,82.2,516.7,104.8z M465,177.5c1.5-16.6,3.9-33.5,7.2-50.4c8.1,1,16.3,1.5,24.7,1.5
			c8.3,0,16.6-0.5,24.6-1.5c3.3,16.9,5.7,33.8,7.2,50.4C507.8,180.1,485.9,180.1,465,177.5z M579.3,205.1c-0.7,0.1-1.3,0.1-2,0.1
			c-13.2,0-24.3-10.3-25.3-23.5c-1.8-22.7-5.3-46.2-10.2-69.4c0,0,0,0,0-0.1c0-0.1-0.1-0.2-0.1-0.3c-9.3-43.6-23.7-86.4-41.4-122
			c-12-24.1-25.2-44.3-39.2-60.3c-0.5-0.7-1-1.3-1.7-1.9c-20.9-23.3-43.4-37.2-66.3-40.4c-21-3-40.2,4.2-54,20.1
			c-19.5,22.4-24.3,57.4-13.2,96c10,34.9,29.2,64.5,55.8,86.2c-4.1,18.4-7.5,36.9-9.9,55.2c-45.9-28.7-79.3-73.4-94.7-127.4
			C261-38.1,269.7-90.4,300.7-126c25.1-28.9,61.4-42.4,99.5-37c31.9,4.5,61.7,20.6,88.6,47.6c0,0,0,0,0.1,0.1c0,0,0.1,0.1,0.1,0.1
			c20.9,21.1,40,48.7,56.9,82.5c17.7,35.5,32.3,77.3,42.5,120.3c0,0.1,0.1,0.2,0.1,0.3c7.1,30,12,60.5,14.3,89.8
			C603.8,191.8,593.3,204,579.3,205.1z M606,64.6c-10.2-38.4-23.8-75.5-39.8-107.5c-3.3-6.6-6.7-13.1-10.2-19.3
			c15.7-16.1,32.1-25.7,47.8-27.9c13.3-1.9,24.9,2.4,33.6,12.4c14.3,16.5,17.4,43.7,8.5,74.8C638.4,23.7,624.7,46.7,606,64.6z
			 M716.8,17.4c-15.5,54-48.8,98.7-94.7,127.4c-2.5-18.3-5.8-36.8-9.9-55.2c26.6-21.7,45.8-51.4,55.8-86.2
			c11.1-38.6,6.2-73.6-13.2-96c-13.8-15.9-33-23-54-20.1c-19.5,2.7-38.5,13-56.7,30.4c-9.8-15.2-20.1-28.8-31-40.8
			c24.9-22.5,51.9-36,80.6-40c38.1-5.4,74.3,8.1,99.5,37C724-90.4,732.7-38.1,716.8,17.4z"/>
		<path class="st11" d="M426.2-137.9c-2.9-5.6-9.7-7.8-15.3-5c-5.6,2.9-7.8,9.7-5,15.3l2.3,4.6c2,4,6,6.2,10.2,6.2
			c1.7,0,3.5-0.4,5.2-1.2c5.6-2.9,7.8-9.7,5-15.3L426.2-137.9z"/>
		<path class="st11" d="M457.2-117.9l-3.8,3.4c-4.7,4.2-5.2,11.4-1,16.1c2.3,2.6,5.4,3.9,8.6,3.9c2.7,0,5.4-0.9,7.5-2.8l3.8-3.4
			c4.7-4.2,5.2-11.4,1-16.1C469.1-121.6,461.9-122.1,457.2-117.9z"/>
		<path class="st11" d="M622.2-150.7l-4.9-1.5c-6-1.8-12.4,1.6-14.2,7.6c-1.8,6,1.6,12.4,7.6,14.2l4.9,1.5c1.1,0.3,2.2,0.5,3.3,0.5
			c4.9,0,9.4-3.2,10.9-8.1C631.6-142.5,628.2-148.9,622.2-150.7z"/>
		<path class="st11" d="M543.9,20.6c-6.3-0.4-11.7,4.4-12,10.7l-0.3,5.1c-0.4,6.3,4.4,11.7,10.7,12c0.2,0,0.5,0,0.7,0
			c6,0,11-4.7,11.4-10.7l0.3-5.1C555,26.3,550.2,21,543.9,20.6z"/>
		<path class="st11" d="M445.8,23.6c1.7,1,3.6,1.4,5.5,1.4c4,0,7.9-2.1,10-5.9l2.5-4.5c3-5.5,1-12.4-4.5-15.5
			c-5.5-3-12.5-1-15.5,4.5l-2.5,4.5C438.2,13.7,440.2,20.6,445.8,23.6z"/>
		<path class="st11" d="M346-144.4l-5,1.3c-6.1,1.6-9.8,7.8-8.2,13.9c1.3,5.2,6,8.6,11,8.6c0.9,0,1.9-0.1,2.8-0.4l5-1.3
			c6.1-1.6,9.8-7.8,8.2-13.9C358.3-142.3,352.1-146,346-144.4z"/>
		<path class="st11" d="M678.4-79.5l-0.8,5c-1,6.2,3.2,12.1,9.4,13.1c0.6,0.1,1.2,0.1,1.8,0.1c5.5,0,10.3-4,11.2-9.6l0.8-5
			c1-6.2-3.2-12.1-9.4-13.1C685.2-90,679.4-85.7,678.4-79.5z"/>
		<path class="st11" d="M300.6-56.5c-6.2-0.9-12,3.5-12.9,9.7l-0.7,5.1c-0.9,6.2,3.5,12,9.7,12.9c0.5,0.1,1.1,0.1,1.6,0.1
			c5.6,0,10.5-4.1,11.3-9.8l0.7-5.1C311.2-49.9,306.8-55.6,300.6-56.5z"/>
		<path class="st11" d="M576.2,98.7c-5.6-2.8-12.5-0.5-15.3,5.1l-2.3,4.6c-2.8,5.6-0.5,12.5,5.1,15.3c1.6,0.8,3.4,1.2,5.1,1.2
			c4.2,0,8.2-2.3,10.2-6.3l2.3-4.6C584.1,108.4,581.8,101.5,576.2,98.7z"/>
		<path class="st11" d="M516.2-61.6l-4.1-3.1c-5-3.8-12.2-2.8-16,2.2c-3.8,5-2.8,12.2,2.2,16l4.1,3.1c2.1,1.6,4.5,2.3,6.9,2.3
			c3.4,0,6.8-1.6,9.1-4.5C522.2-50.7,521.2-57.8,516.2-61.6z"/>
		<path class="st11" d="M554.6-136.4l-4,3.2c-4.9,3.9-5.7,11.1-1.8,16c2.3,2.8,5.6,4.3,8.9,4.3c2.5,0,5-0.8,7.1-2.5l4-3.2
			c4.9-3.9,5.7-11.1,1.8-16C566.6-139.6,559.5-140.3,554.6-136.4z"/>
		<path class="st11" d="M446.8,70.4l0-5.1c0-6.3-5.1-11.4-11.4-11.4c0,0,0,0,0,0c-6.3,0-11.4,5.1-11.4,11.4l0,5.1
			c0,6.3,5.1,11.4,11.4,11.4c0,0,0,0,0,0C441.8,81.8,446.8,76.7,446.8,70.4z"/>
	</g>
</g>
</svg>
