<?xml version="1.0" encoding="utf-8"?>
<!-- Generator: Adobe Illustrator 19.0.0, SVG Export Plug-In . SVG Version: 6.00 Build 0)  -->
<svg version="1.1" id="Layer_1" xmlns="http://www.w3.org/2000/svg" xmlns:xlink="http://www.w3.org/1999/xlink" x="0px" y="0px"
	 viewBox="0 0 32 32" style="enable-background:new 0 0 32 32;" xml:space="preserve">
<style type="text/css">
	.st0{fill:#4CAF50;}
</style>
<g id="XMLID_17_">
	<path id="XMLID_15_" class="st0" d="M16.4,11.8l2,1.1c0.1,0,0.2,0.1,0.3,0.1c0.2,0,0.3-0.1,0.4-0.3c0.1-0.2,0.1-0.6-0.2-0.7l-2-1.1
		c-0.2-0.1-0.6-0.1-0.7,0.2C16,11.4,16.1,11.7,16.4,11.8L16.4,11.8z"/>
	<path id="XMLID_14_" class="st0" d="M10.6,14.3c-0.3,0-0.5,0.2-0.5,0.5v2.3c0,0.3,0.2,0.5,0.5,0.5c0.3,0,0.5-0.2,0.5-0.5v-2.3
		C11.1,14.6,10.9,14.3,10.6,14.3L10.6,14.3z"/>
	<path id="XMLID_13_" class="st0" d="M18.4,19l-2,1.1c-0.2,0.1-0.3,0.5-0.2,0.7c0.1,0.2,0.3,0.3,0.4,0.3c0.1,0,0.2,0,0.3-0.1l2-1.1
		c0.2-0.1,0.3-0.5,0.2-0.7C18.9,19,18.6,18.9,18.4,19z"/>
	<path id="XMLID_18_" class="st0" d="M28.7,21.9c-0.5,0-1,0.2-1.3,0.5l-3.6-2.1c0-0.1,0.1-0.3,0.1-0.5c0-0.9-0.6-1.6-1.4-1.8v-4.1
		c0.8-0.2,1.4-0.9,1.4-1.8c0-0.2,0-0.3-0.1-0.5l3.6-2.1c0.3,0.3,0.8,0.5,1.3,0.5c1,0,1.9-0.8,1.9-1.9s-0.8-1.9-1.9-1.9
		c-1,0-1.9,0.8-1.9,1.9c0,0.2,0,0.3,0.1,0.5l-3.6,2.1c-0.3-0.3-0.8-0.5-1.3-0.5c-0.5,0-1,0.2-1.3,0.5l-3.6-2.1
		c0-0.1,0.1-0.3,0.1-0.5c0-0.9-0.6-1.6-1.4-1.8V0.5c0-0.3-0.2-0.5-0.5-0.5c-0.3,0-0.5,0.2-0.5,0.5v5.9c-0.8,0.2-1.4,0.9-1.4,1.8
		c0,0.2,0,0.3,0.1,0.5l-3.6,2.1c-0.3-0.3-0.8-0.5-1.3-0.5s-1,0.2-1.3,0.5L3.7,8.7c0-0.1,0.1-0.3,0.1-0.5c0-1-0.8-1.9-1.9-1.9
		S0,7.2,0,8.3s0.8,1.9,1.9,1.9c0.5,0,1-0.2,1.3-0.5l3.6,2.1c0,0.1-0.1,0.3-0.1,0.5c0,0.9,0.6,1.6,1.4,1.8v4.1
		c-0.8,0.2-1.4,0.9-1.4,1.8c0,0.2,0,0.3,0.1,0.5l-3.6,2.1c-0.3-0.3-0.8-0.5-1.3-0.5c-1,0-1.9,0.8-1.9,1.9s0.8,1.9,1.9,1.9
		s1.9-0.8,1.9-1.9c0-0.2,0-0.3-0.1-0.5l3.6-2.1c0.3,0.3,0.8,0.5,1.3,0.5s1-0.2,1.3-0.5l3.6,2.1c0,0.1-0.1,0.3-0.1,0.5
		c0,0.9,0.6,1.6,1.4,1.8v5.9c0,0.3,0.2,0.5,0.5,0.5s0.5-0.2,0.5-0.5v-5.9c0.8-0.2,1.4-0.9,1.4-1.8c0-0.2,0-0.3-0.1-0.5l3.6-2.1
		c0.3,0.3,0.8,0.5,1.3,0.5c0.5,0,1-0.2,1.3-0.5l3.6,2.1c0,0.1-0.1,0.3-0.1,0.5c0,1,0.8,1.9,1.9,1.9c1,0,1.9-0.8,1.9-1.9
		S29.7,21.9,28.7,21.9L28.7,21.9z M28.7,7.4c0.5,0,0.9,0.4,0.9,0.9c0,0.5-0.4,0.9-0.9,0.9c-0.5,0-0.9-0.4-0.9-0.9S28.2,7.4,28.7,7.4
		z M1.9,9.1C1.4,9.1,1,8.7,1,8.3s0.4-0.9,0.9-0.9s0.9,0.4,0.9,0.9C2.7,8.7,2.3,9.1,1.9,9.1z M1.9,24.6c-0.5,0-0.9-0.4-0.9-0.9
		s0.4-0.9,0.9-0.9s0.9,0.4,0.9,0.9S2.3,24.6,1.9,24.6z M22,11.3c0.5,0,0.9,0.4,0.9,0.9c0,0.5-0.4,0.9-0.9,0.9s-0.9-0.4-0.9-0.9
		C21.1,11.7,21.5,11.3,22,11.3z M15.3,7.4c0.5,0,0.9,0.4,0.9,0.9c0,0.5-0.4,0.9-0.9,0.9c-0.5,0-0.9-0.4-0.9-0.9S14.8,7.4,15.3,7.4z
		 M7.7,12.1c0-0.5,0.4-0.9,0.9-0.9s0.9,0.4,0.9,0.9C9.4,12.6,9,13,8.6,13S7.7,12.6,7.7,12.1z M8.6,20.7c-0.5,0-0.9-0.4-0.9-0.9
		S8.1,19,8.6,19s0.9,0.4,0.9,0.9S9,20.7,8.6,20.7z M15.3,24.6c-0.5,0-0.9-0.4-0.9-0.9s0.4-0.9,0.9-0.9c0.5,0,0.9,0.4,0.9,0.9
		S15.8,24.6,15.3,24.6z M20.1,19.9c0,0.2,0,0.3,0.1,0.5l-3.6,2.1c-0.3-0.3-0.8-0.5-1.3-0.5c-0.5,0-1,0.2-1.3,0.5l-3.6-2.1
		c0-0.1,0.1-0.3,0.1-0.5c0-0.9-0.6-1.6-1.4-1.8v-4.1c0.8-0.2,1.4-0.9,1.4-1.8c0-0.2,0-0.3-0.1-0.5L14,9.6c0.3,0.3,0.8,0.5,1.3,0.5
		c0.5,0,1-0.2,1.3-0.5l3.6,2.1c0,0.1-0.1,0.3-0.1,0.5c0,0.9,0.6,1.6,1.4,1.8v4.1C20.7,18.3,20.1,19,20.1,19.9z M22,20.7
		c-0.5,0-0.9-0.4-0.9-0.9c0-0.5,0.4-0.9,0.9-0.9c0.5,0,0.9,0.4,0.9,0.9C22.8,20.3,22.5,20.7,22,20.7z M28.7,24.6
		c-0.5,0-0.9-0.4-0.9-0.9s0.4-0.9,0.9-0.9c0.5,0,0.9,0.4,0.9,0.9S29.2,24.6,28.7,24.6z"/>
</g>
</svg>
