<?xml version="1.0" encoding="utf-8"?>
<!-- Generator: Adobe Illustrator 19.0.0, SVG Export Plug-In . SVG Version: 6.00 Build 0)  -->
<svg version="1.1" id="Layer_1" xmlns="http://www.w3.org/2000/svg" xmlns:xlink="http://www.w3.org/1999/xlink" x="0px" y="0px"
	 viewBox="0 0 16 16" style="enable-background:new 0 0 16 16;" xml:space="preserve">
<style type="text/css">
	.st0{fill:#F4F4F4;}
	.st1{fill:#006838;}
	.st2{fill:#191919;}
</style>
<g id="XMLID_28_">
	<path id="XMLID_13_" class="st0" d="M13.1,0.7H9.3H5.5c-0.8,0-1.4,0.6-1.4,1.4v0.3V14h8.8h0.2c0.8,0,1.4-0.6,1.4-1.4V2.1
		C14.5,1.4,13.9,0.7,13.1,0.7z"/>
	<path id="XMLID_12_" class="st0" d="M3.9,2.4C3.2,2.4,2.5,3,2.5,3.8v10.5c0,0.8,0.6,1.4,1.4,1.4h7.5c0.8,0,1.4-0.6,1.4-1.4v-9
		l-2.6-2.9H3.9z"/>
</g>
<polygon id="XMLID_11_" class="st1" points="10.2,5.6 12.8,5.6 10.2,2.7 "/>
<g id="XMLID_15_">
	<path id="XMLID_22_" class="st2" d="M13.1,0.4H5.6c-0.9,0-1.7,0.7-1.7,1.7C3,2.1,2.3,2.9,2.3,3.8v10.5C2.2,15.2,3,16,3.9,16h7.5
		c0.9,0,1.7-0.7,1.7-1.7c0.9,0,1.6-0.8,1.6-1.7V2.2C14.8,1.2,14,0.4,13.1,0.4z M12.6,14.3c0,0.6-0.5,1.1-1.1,1.1H3.9
		c-0.6,0-1.1-0.5-1.1-1.1V3.8c0-0.6,0.5-1.1,1.1-1.1H10v2.6c0,0.2,0.1,0.3,0.3,0.3h2.3V14.3L12.6,14.3L12.6,14.3z M10.6,5V3.2
		L12.3,5H10.6z M14.2,12.6c0,0.6-0.5,1.1-1,1.1V5.3V5.2l0,0l0,0l-2.6-2.9l0,0c0,0,0,0-0.1,0l0,0h-0.1h-6C4.4,1.5,4.9,1,5.6,1h7.5
		c0.6,0,1.1,0.5,1.1,1.1L14.2,12.6L14.2,12.6z"/>
	<path id="XMLID_6_" class="st2" d="M6.8,5H4.3C4.1,5,4,5.2,4,5.3c0,0.2,0.1,0.3,0.3,0.3h2.5c0.2,0,0.3-0.1,0.3-0.3
		C7.1,5.2,6.9,5,6.8,5z"/>
	<path id="XMLID_5_" class="st2" d="M6.8,12.5H4.3c-0.2,0-0.3,0.1-0.3,0.3s0.1,0.3,0.3,0.3h2.5c0.2,0,0.3-0.1,0.3-0.3
		C7.1,12.7,6.9,12.5,6.8,12.5z"/>
	<path id="XMLID_4_" class="st2" d="M11,6.9H4.3C4.1,6.9,4,7.1,4,7.2c0,0.2,0.1,0.3,0.3,0.3H11c0.2,0,0.3-0.1,0.3-0.3
		C11.3,7.1,11.2,6.9,11,6.9z"/>
	<path id="XMLID_3_" class="st2" d="M11,8.3H4.3C4.1,8.3,4,8.5,4,8.6c0,0.2,0.1,0.3,0.3,0.3H11c0.2,0,0.3-0.1,0.3-0.3
		C11.3,8.5,11.2,8.3,11,8.3z"/>
	<path id="XMLID_2_" class="st2" d="M11,9.8H4.3C4.1,9.8,4,9.9,4,10c0,0.2,0.1,0.3,0.3,0.3H11c0.2,0,0.3-0.1,0.3-0.3
		C11.3,9.9,11.2,9.8,11,9.8z"/>
	<path id="XMLID_1_" class="st2" d="M11,11.2H4.3c-0.2,0-0.3,0.1-0.3,0.3s0.1,0.3,0.3,0.3H11c0.2,0,0.3-0.1,0.3-0.3
		S11.2,11.2,11,11.2z"/>
</g>
</svg>
