<?xml version="1.0" encoding="utf-8"?>
<!-- Generator: Adobe Illustrator 19.0.0, SVG Export Plug-In . SVG Version: 6.00 Build 0)  -->
<svg version="1.1" id="Layer_1" xmlns="http://www.w3.org/2000/svg" xmlns:xlink="http://www.w3.org/1999/xlink" x="0px" y="0px"
	 viewBox="2 -2 20 20" style="enable-background:new 2 -2 20 20;" xml:space="preserve">
<style type="text/css">
	.st0{fill:#040000;}
</style>
<g>
	<path class="st0" d="M2.7,10.4c1-0.7,2.8-1,2.8-1s0,0.1-0.1,0.2c0,0,0.1,0.2,0.2,0.2c0,0.1,0,0.1,0,0.1s0,0.2,0,0.3
		c0,0.1,0.6,0.1,0.6,0.1s1.5,0.6,1.7,0.6c0.2,0,0.9-0.2,1.3-0.3c0.3-0.1,0.8-0.2,0.8-0.3c0,0,0.2,0.4,0.1,0.5c0,0.1,0.1,0.2,0.1,0.3
		c0,0,0,0,0,0.1c0,0,0,0,0,0c0,0,0,0,0,0.1c0,0,0,0-0.1,0c0,0,0,0,0,0.1l0,0c0,0,0,0-0.1,0c0,0,0,0,0,0.1c0,0,0,0-0.1,0
		c0,0,0,0,0,0.1l0,0c0,0,0,0-0.1,0c0,0,0,0,0,0.1c0,0,0,0-0.1,0c0,0,0,0,0,0.1l0,0c0,0,0,0-0.1,0c0,0,0,0,0,0.1c0,0,0,0-0.1,0
		c0,0,0,0,0,0.1l0,0c0,0,0,0-0.1,0c0,0,0,0,0,0.1c0,0,0,0-0.1,0c0,0,0,0,0,0.1l0,0c0,0,0,0,0,0l0,0c0,0,0-0.1,0-0.1c0,0-0.1,0-0.1,0
		l0,0c-0.1-0.1-0.2-0.1-0.3-0.2l0,0c0,0,0,0,0-0.1c0,0-0.1,0-0.1,0l0,0c-0.1-0.1-0.2-0.1-0.3-0.1l0,0c0,0,0,0-0.1-0.1
		c0,0-0.1,0-0.1,0l0,0c-0.1,0-0.2-0.1-0.3-0.1l0,0c0,0,0,0-0.1,0c0,0-0.1,0-0.1,0l0,0c-0.1,0-0.2,0-0.3,0l0,0c0,0,0,0-0.1,0
		c0,0-0.1,0-0.1,0l0,0c-0.1,0-0.2,0-0.3,0l0,0c0,0,0,0-0.1,0c0,0-0.1,0.1-0.1,0.1l0,0c-0.1,0-0.2,0.1-0.3,0.1l0,0c0,0,0,0-0.1,0
		c0,0-0.1,0.1-0.1,0.1l0,0c-0.1,0-0.2,0.1-0.3,0.2l0,0c0,0-0.1,0-0.1,0c0,0,0,0.1,0,0.1l0,0c-0.1,0.1-0.2,0.1-0.3,0.2l0,0
		c0,0-0.1,0-0.1,0c0,0,0,0.1,0,0.1l0,0c-0.1,0.1-0.2,0.2-0.2,0.3l0,0c0,0-0.1,0-0.1,0c0,0,0,0.1,0,0.1l0,0C5.1,12.5,5,12.6,5,12.7
		l0,0c0,0-0.1,0-0.1,0c0,0,0,0.1,0,0.1l0,0c-0.1,0.1-0.1,0.2-0.1,0.3l0,0c0,0,0,0-0.1,0.1c0,0,0,0.1,0,0.1l0,0
		c0,0.1-0.1,0.2-0.1,0.3l0,0c0,0,0,0,0,0.1c0,0,0,0.1,0,0.1l0,0c0,0.1,0,0.2,0,0.3l0,0c0,0,0,0,0,0.1c0,0,0,0.1,0,0.1l0,0
		c0,0.1,0,0.2,0,0.3l0,0l0,0l0,0c0,0,0,0,0,0.1c0,0,0.1,0.1,0.1,0.1l0,0c0,0.1,0.1,0.2,0.1,0.3l0,0c0,0,0,0,0,0.1
		c0,0,0.1,0.1,0.1,0.1l0,0c0,0.1,0.1,0.2,0.2,0.3l0,0c0,0,0,0.1,0,0.1c0,0,0.1,0,0.1,0l0,0c0.1,0.1,0.1,0.2,0.2,0.3l0,0
		c0,0,0,0.1,0,0.1c0,0,0.1,0,0.1,0l0,0c0.1,0.1,0.2,0.2,0.3,0.2l0,0c0,0,0,0.1,0,0.1c0,0,0.1,0,0.1,0l0,0c0.1,0.1,0.2,0.1,0.3,0.2
		l0,0c0,0,0,0.1,0,0.1c0,0,0.1,0,0.1,0l0,0c0.1,0,0.2,0.1,0.3,0.1l0,0c0,0,0,0,0.1,0.1c0,0,0.1,0,0.1,0l0,0c0.1,0,0.2,0.1,0.3,0.1
		l0,0c0,0,0,0,0.1,0c0,0,0.1,0,0.1,0l0,0c0.1,0,0.2,0,0.3,0l0,0c0,0,0,0,0.1,0c0,0,0.1,0,0.1,0l0,0c0.1,0,0.2,0,0.3,0l0,0
		c0,0,0,0,0.1,0c0,0,0.1-0.1,0.1-0.1l0,0c0.1,0,0.2-0.1,0.3-0.1l0,0c0,0,0,0,0.1,0c0,0,0.1-0.1,0.1-0.1l0,0c0.1,0,0.2-0.1,0.3-0.2
		l0,0c0,0,0.1,0,0.1,0c0,0,0-0.1,0-0.1l0,0c0.1-0.1,0.2-0.1,0.3-0.2l0,0c0,0,0.1,0,0.1,0c0,0,0-0.1,0-0.1l0,0
		c0.1-0.1,0.2-0.2,0.2-0.3l0,0c0,0,0.1,0,0.1,0c0,0,0-0.1,0-0.1l0,0c0.1-0.1,0.1-0.2,0.2-0.3l0,0c0,0,0.1,0,0.1,0c0,0,0-0.1,0-0.1
		l0,0c0.1-0.1,0.1-0.2,0.1-0.3l0,0c0,0,0,0,0.1-0.1c0,0,0-0.1,0-0.1l0,0c0-0.1,0.1-0.2,0.1-0.3l0,0c0,0,0,0,0-0.1c0,0,0-0.1,0-0.1
		l0,0c0-0.1,0-0.2,0-0.3l0,0c0,0,0,0,0-0.1c0,0,0-0.1,0-0.1l0,0c0-0.1,0-0.2,0-0.3l0,0c0,0,0,0,0-0.1c0,0-0.1-0.1-0.1-0.1l0,0
		c0-0.1,0-0.2-0.1-0.3c0,0,0,0,0,0l0,0c0,0,0,0,0.1,0c0,0,0,0,0-0.1c0,0,0.1,0,0.1,0c0,0,0,0,0-0.1l0,0c0,0,0,0,0,0
		c0,0,0.1,0.1,0.1,0.1c0.1,0.1,0.2-0.1,0.4-0.3c0.1,0,0.2-0.1,0.2-0.1s-0.1-0.2,0-0.3c0-0.1,0.1-0.2,0.1-0.2s0.2,0,0.2,0
		c0.1,0,0.5-0.2,1.5-0.4c1-0.3,1.2-0.8,1.2-1.5C14.2,9.6,14,9,14,9c0,0,0.1,0,0.1,0l0-0.2l0.2-0.1c0,0,0.1,0.4,0.1,0.4
		c0,0,0.4-0.3,0.3-1c0-0.2,0-0.5,0.1-0.8c0.2,0.1,0.3,0.3,0.5,0.4c0.3,0.2,0.5,0.5,0.8,0.6c0.1,0.1,0.2,0.2,0.3,0.3
		c0,0.1-0.1,0.2-0.1,0.3l0,0c0,0,0,0-0.1,0.1c0,0,0,0.1,0,0.1l0,0c0,0.1,0,0.2,0,0.3l0,0c0,0,0,0,0,0.1c0,0,0,0.1,0,0.1l0,0
		c0,0.1,0,0.2,0,0.3l0,0c0,0,0,0,0,0.1c0,0,0,0.1,0,0.1l0,0c0,0.1,0,0.2,0.1,0.3l0,0c0,0,0,0,0,0.1c0,0,0.1,0.1,0.1,0.1l0,0
		c0,0.1,0.1,0.2,0.1,0.3l0,0c0,0,0,0,0,0.1c0,0,0.1,0.1,0.1,0.1l0,0c0.1,0.1,0.1,0.2,0.2,0.3l0,0c0,0,0,0,0,0.1c0,0,0.1,0,0.1,0l0,0
		c0.1,0.1,0.1,0.2,0.2,0.2l0,0c0,0,0,0,0,0.1c0,0,0.1,0,0.1,0l0,0c0.1,0.1,0.2,0.1,0.3,0.2l0,0c0,0,0,0,0,0.1c0,0,0.1,0,0.1,0l0,0
		c0.1,0.1,0.2,0.1,0.3,0.2l0,0c0,0,0,0,0.1,0.1c0,0,0.1,0,0.1,0l0,0c0.1,0,0.2,0.1,0.3,0.1l0,0c0,0,0,0,0.1,0.1c0,0,0.1,0,0.1,0l0,0
		c0.1,0,0.2,0,0.3,0.1l0,0c0,0,0,0,0.1,0c0,0,0.1,0,0.1,0l0,0c0.1,0,0.2,0,0.3,0l0,0c0,0,0,0,0.1,0c0,0,0.1,0,0.1,0l0,0
		c0.1,0,0.2,0,0.3,0l0,0c0,0,0,0,0.1,0c0,0,0.1-0.1,0.1-0.1l0,0c0.1,0,0.2-0.1,0.3-0.1l0,0c0,0,0,0,0.1,0c0,0,0.1-0.1,0.1-0.1l0,0
		c0.1,0,0.2-0.1,0.3-0.2l0,0c0,0,0.1,0,0.1,0c0,0,0-0.1,0-0.1l0,0c0.1-0.1,0.2-0.1,0.3-0.2l0,0c0,0,0.1,0,0.1,0c0,0,0-0.1,0-0.1l0,0
		c0.1-0.1,0.2-0.2,0.2-0.2l0,0c0,0,0.1,0,0.1,0c0,0,0-0.1,0-0.1l0,0c0.1-0.1,0.1-0.2,0.2-0.3l0,0c0,0,0,0,0.1,0c0,0,0-0.1,0-0.1l0,0
		c0-0.1,0.1-0.2,0.1-0.3l0,0c0,0,0,0,0.1-0.1c0,0,0-0.1,0-0.1l0,0c0-0.1,0.1-0.2,0.1-0.3l0,0c0,0,0,0,0-0.1c0,0,0-0.1,0-0.1l0,0
		c0-0.1,0-0.2,0-0.3l0,0c0,0,0,0,0-0.1c0,0,0-0.1,0-0.1l0,0c0-0.1,0-0.2-0.1-0.3l0,0c0,0,0,0,0-0.1c0,0-0.1-0.1-0.1-0.1l0,0
		c0-0.1-0.1-0.2-0.1-0.3l0,0c0,0,0-0.1,0-0.1c0,0-0.1-0.1-0.1-0.1l0,0c-0.1-0.1-0.1-0.2-0.2-0.3l0,0c0,0,0-0.1,0-0.1
		c0,0-0.1,0-0.1,0l0,0c-0.1-0.1-0.1-0.2-0.2-0.3l0,0c0,0,0-0.1,0-0.1c0,0-0.1,0-0.1,0l0,0c-0.1-0.1-0.2-0.2-0.3-0.2l0,0
		c0,0,0-0.1,0-0.1c0,0-0.1,0-0.1,0l0,0c-0.1-0.1-0.2-0.1-0.3-0.2l0,0c0,0,0-0.1-0.1-0.1c0,0-0.1,0-0.1,0l0,0C20.1,7,20,7,19.9,7l0,0
		c0,0,0,0-0.1-0.1c0,0-0.1,0-0.1,0l0,0c-0.1,0-0.2,0-0.3-0.1l0,0c0,0,0,0-0.1,0c0,0-0.1,0-0.1,0l0,0c-0.1,0-0.2,0-0.3,0l0,0
		c0,0,0,0-0.1,0c0,0-0.1,0-0.1,0l0,0c-0.1,0-0.2,0-0.3,0.1l0,0c0,0,0,0-0.1,0c0,0-0.1,0.1-0.1,0.1l0,0C18.1,7,18,7,17.9,7.1l0,0
		c0,0-0.1,0-0.1,0c0,0-0.1,0.1-0.1,0.1l0,0c-0.1,0.1-0.2,0.1-0.3,0.2l0,0c0,0-0.1,0-0.1,0c0,0,0,0.1,0,0.1l0,0c0,0,0,0-0.1,0.1
		c-0.1-0.1-0.3-0.3-0.5-0.4c-0.2-0.1-0.6-0.5-1.1-1c0.1-0.1,0.3-0.2,0.4-0.3c0.7-0.3,1.8,0,1.8,0c0.1,0,0.5-0.1,0.7-0.2
		c0.1,0,0.1-0.1-0.1-0.2C18.4,5.2,17.7,5,16.8,5c-0.6,0-1.2,0.4-1.5,0.6c-0.2-0.2-0.4-0.4-0.5-0.6c-0.5-0.6-0.8-0.8-1-0.8
		c-0.1-0.1-0.3-0.3-0.3-0.3c0,0,0.4-0.1,0.6-0.2c0.2-0.1,0.1-0.2,0.1-0.2c0,0,0,0.1-0.1,0.1c-0.1,0-0.5,0.2-0.6,0.1
		c-0.1,0,0-0.2,0-0.2c0,0,0.7-0.3,0.7-0.3s0,0.1,0.1,0.1c0,0,0.1-0.1,0-0.2c0-0.1-0.1-0.2-0.1-0.2c0,0,0,0.1,0,0.1
		c-0.1,0.1-0.6,0.2-0.6,0.2s-0.1-0.1-0.3-0.2c-0.2-0.1-0.4,0.2-0.6,0.3c-0.1,0-0.6,0.3-0.7,0.3c-0.1,0-0.6,0.2-0.7,0.1
		c-0.1-0.1-0.8-0.5-0.9-0.5c-0.1,0-0.1-0.1-0.1-0.1c0,0,0.1-0.1,0.1-0.1c0,0-0.2-0.6-0.2-0.6c0.1,0,0.3,0.3,0.3,0.3
		c0.1,0,0.5-0.4,0.5-0.5C11.2,2.3,11,2,11,2l-0.1,0l0-0.1L11,1.5c0,0,0.1,0,0.1-0.1c0-0.1-0.1-0.1-0.1-0.1l0-0.1c0,0,0.1-0.1,0.3,0
		c0.8,0.1,0.6,0,0.5-0.1C11.6,1,11.1,0.6,11,0.6c-0.4-0.8-1.3-0.4-1.3-0.4L9.4,0.1C8.5,0.5,8.6,1.2,8.7,1.5c0.1,0.3,0.4,0.3,0.5,0.4
		c0,0,0,0.2-0.1,0.2C9.1,2,8.8,1.9,8.7,1.9c-0.1,0-0.4,0-0.5,0c0,0-0.1,0.2-0.1,0.2l0.1,0c0,0-0.5,0.4-0.6,0.5
		C7.6,2.7,7.6,3.9,7.5,4.1C7.4,4.3,7.5,4.9,7.5,5c0,0.1-0.2,0.2-0.2,0.6C7.3,5.7,7.2,6,7.4,6.4c-0.1,0.3,0.3,0.9,0.5,1
		C8.2,7.5,9,7.9,9,7.9c-0.1,0-2.9,0.7-3,0.9C4.5,9,3.4,9.7,3,10C2.7,10.2,2.5,10.5,2.7,10.4z M10.8,1.8l0.1-0.3l0.1,0L10.8,1.8
		L10.8,1.8z M10.7,1.8l0.1-0.3l0,0L10.7,1.8L10.7,1.8z M18.2,9.1c0,0-0.1,0.1-0.1,0.1c0,0,0,0,0,0.1L17.5,9c-0.1,0-0.1-0.1-0.1-0.1
		c0-0.1,0.1-0.1,0.1-0.2L18.2,9.1z M18.1,9.4C18.1,9.4,18.1,9.4,18.1,9.4c-0.1,0-0.2-0.1-0.3-0.1c0,0,0,0,0,0L18.1,9.4z M18.3,9.5
		C18.3,9.5,18.3,9.5,18.3,9.5L18.3,9.5l0.2,0.1c0,0,0,0,0,0C18.4,9.6,18.4,9.6,18.3,9.5z M18.3,10.3L18.3,10.3L18.3,10.3L18.3,10.3z
		 M18.8,10.5C18.8,10.5,18.8,10.4,18.8,10.5l0-0.2l0.1,0c0,0,0,0,0,0c0,0,0.1,0,0.1,0l0,0L18.8,10.5C18.8,10.5,18.8,10.5,18.8,10.5z
		 M18.8,10.5C18.8,10.5,18.8,10.5,18.8,10.5L18.8,10.5L18.8,10.5L18.8,10.5C18.8,10.5,18.8,10.5,18.8,10.5z M19,10.5l0-0.2l0,0
		c0,0,0.1,0,0.1,0l0.1,0l-0.1,0.1C19.1,10.5,19,10.5,19,10.5z M19.1,10.6L19.1,10.6L19.1,10.6L19.1,10.6z M19.4,8.9L19.4,8.9
		L19.4,8.9c0-0.1,0.1-0.1,0.1-0.1c0,0,0.1,0.1,0.1,0.1c0,0,0,0,0,0L19.5,9c0,0,0,0,0,0C19.5,9,19.5,8.9,19.4,8.9
		C19.4,8.9,19.4,8.9,19.4,8.9C19.4,8.9,19.4,8.9,19.4,8.9z M19.4,9c0,0,0.1,0.1,0.1,0.1l-0.1,0.2c0,0,0,0,0,0L19.4,9
		C19.4,9,19.4,9,19.4,9z M19.6,9.1c0,0,0.1,0.1,0.1,0.1l-0.2,0L19.6,9.1z M19.7,9.5l0.2,0.1c0,0,0,0.1,0,0.1l-0.2,0
		C19.7,9.7,19.7,9.6,19.7,9.5z M19.7,9.8l0.2,0c0,0.1,0,0.1,0,0.2L19.7,9.8C19.7,9.9,19.7,9.9,19.7,9.8z M19.7,9.5L19.7,9.5
		c0-0.1-0.1-0.1-0.1-0.2l0.2,0c0,0,0,0,0,0L19.7,9.5z M19.8,9.3c0,0,0,0.1,0,0.1l-0.1,0L19.8,9.3z M19.6,10.2L19.6,10.2
		C19.6,10.2,19.6,10.2,19.6,10.2L19.6,10.2L19.6,10.2z M19.7,9.1C19.7,9.1,19.7,9.1,19.7,9.1L19.7,9.1C19.7,9,19.7,9,19.7,9.1
		l0.2,0.1l0,0.1l0,0L19.7,9.1z M19.9,9.5C19.9,9.5,19.9,9.6,19.9,9.5l-0.1,0L19.9,9.5z M19.8,9.3C19.8,9.3,19.8,9.3,19.8,9.3
		L19.8,9.3L19.8,9.3c0.1,0,0.1,0,0.1,0c0,0,0,0.1,0,0.1l-0.1,0c0,0,0,0,0,0C19.9,9.4,19.9,9.4,19.8,9.3C19.9,9.3,19.8,9.3,19.8,9.3z
		 M20,9.5C20,9.5,20,9.5,20,9.5l0,0.2c0,0,0,0,0,0L20,9.6L20,9.5C19.9,9.5,19.9,9.5,20,9.5L20,9.5z M20,9.7L20,9.7
		C20,9.7,20,9.7,20,9.7L20,9.7L20,9.7z M20.1,9.8c0,0,0,0.1,0,0.1c0,0,0,0.1,0,0.1c0,0,0,0,0,0L19.9,10c0,0,0,0,0,0c0,0,0-0.1,0-0.1
		C20,9.9,20,9.8,20.1,9.8C20,9.8,20,9.8,20.1,9.8L20.1,9.8C20.1,9.8,20.1,9.8,20.1,9.8z M20,10.1l-0.1,0.1c0,0,0,0,0,0l-0.1,0
		c0,0,0,0,0,0l0.1-0.1L20,10.1L20,10.1C20,10.1,20,10.1,20,10.1z M19.9,10.3L19.9,10.3L19.9,10.3C19.9,10.3,19.9,10.3,19.9,10.3z
		 M19.8,10.4C19.8,10.4,19.8,10.4,19.8,10.4c-0.1,0.1-0.1,0.1-0.1,0.1l0-0.1l0,0c0,0,0,0,0,0L19.8,10.4L19.8,10.4z M19.6,10.2
		L19.6,10.2l0.2-0.1C19.8,10.2,19.7,10.2,19.6,10.2L19.6,10.2z M19.7,10.3C19.7,10.3,19.7,10.3,19.7,10.3L19.7,10.3L19.7,10.3z
		 M19.7,10.7L19.7,10.7C19.6,10.6,19.7,10.6,19.7,10.7L19.7,10.7z M19.6,10.1L19.6,10.1C19.6,10.1,19.6,10,19.6,10.1
		c0.1-0.1,0.1-0.1,0.1-0.2l0.2,0.1c0,0,0,0,0,0L19.6,10.1z M19.6,10.5C19.6,10.5,19.6,10.6,19.6,10.5L19.6,10.5l-0.2,0L19.6,10.5
		C19.6,10.5,19.6,10.5,19.6,10.5L19.6,10.5z M19.5,10.6L19.5,10.6C19.5,10.6,19.5,10.6,19.5,10.6L19.5,10.6
		C19.4,10.6,19.4,10.6,19.5,10.6L19.5,10.6z M19.4,10.5L19.4,10.5l-0.1-0.2c0.1,0,0.1-0.1,0.2-0.1l0.1,0l0,0.1
		C19.5,10.4,19.5,10.4,19.4,10.5z M19.3,8.8L19.3,8.8L19.3,8.8c0,0.1,0,0.1,0,0.1l-0.2,0c0,0,0,0,0,0l0-0.1L19.3,8.8z M19.2,8.7
		l0.1-0.1l0,0.2C19.2,8.7,19.2,8.7,19.2,8.7z M19.3,10.5c0,0-0.1,0-0.1,0l0-0.1L19.3,10.5z M19.2,10.4L19.2,10.4
		C19.3,10.3,19.3,10.3,19.2,10.4L19.2,10.4L19.2,10.4z M19.2,10.4C19.2,10.4,19.2,10.4,19.2,10.4L19.2,10.4L19.2,10.4z M19.1,9.1
		L19,9l0,0c0.1,0,0.1,0,0.2,0l-0.1,0.2C19.2,9.1,19.1,9.1,19.1,9.1z M19.3,9l0,0.2c0,0,0,0,0,0c0,0-0.1,0-0.1,0L19.3,9z M19.4,10.7
		C19.3,10.7,19.3,10.7,19.4,10.7c-0.1,0-0.2,0-0.2,0c0,0,0,0,0,0l0-0.1c0,0,0,0,0,0c0,0,0.1,0,0.1,0C19.3,10.6,19.3,10.6,19.4,10.7
		C19.3,10.6,19.3,10.6,19.4,10.7L19.4,10.7L19.4,10.7z M19,8.9L19,8.9l0,0.1l0,0c0,0,0,0-0.1-0.1C18.9,8.9,18.9,8.9,19,8.9z
		 M18.9,8.9C18.9,8.9,18.9,8.9,18.9,8.9C18.9,8.9,18.8,8.9,18.9,8.9l-0.1-0.1c0,0,0,0,0,0C18.8,8.8,18.9,8.8,18.9,8.9
		c0-0.1,0-0.1,0-0.1L18.9,8.9C18.9,8.9,18.9,8.9,18.9,8.9z M18.9,10.5L18.9,10.5L18.9,10.5C18.9,10.5,18.9,10.5,18.9,10.5z M19,10.6
		l0,0.1L19,10.6C18.9,10.7,18.9,10.7,19,10.6L19,10.6C18.9,10.6,18.9,10.6,19,10.6L19,10.6z M19,9L19,9L19,9L19,9z M19,8.8
		C19,8.8,19,8.8,19,8.8C19,8.8,19,8.8,19,8.8L19,8.8L19,8.8z M19,10.8L18.9,11l-0.1-0.2C18.9,10.7,18.9,10.7,19,10.8z M18.7,8.8
		C18.7,8.8,18.7,8.8,18.7,8.8L18.7,8.8C18.7,8.8,18.7,8.8,18.7,8.8z M18.7,10.2C18.7,10.2,18.7,10.2,18.7,10.2L18.7,10.2L18.7,10.2
		L18.7,10.2z M18.7,10.6L18.7,10.6C18.7,10.6,18.7,10.6,18.7,10.6l-0.2-0.1c0,0,0,0,0,0l0.1-0.1c0,0,0,0,0,0c0,0,0,0,0.1,0
		L18.7,10.6z M18.7,8.9L18.7,8.9C18.7,8.9,18.7,8.9,18.7,8.9L18.7,8.9z M18.7,10.3l0,0.1C18.7,10.4,18.7,10.4,18.7,10.3L18.7,10.3z
		 M18.6,10.3L18.6,10.3L18.6,10.3C18.6,10.3,18.6,10.3,18.6,10.3z M18.5,10.3C18.5,10.2,18.5,10.2,18.5,10.3l0-0.2c0,0,0.1,0,0.1,0
		c0,0,0,0,0.1,0.1l0,0.1l0,0L18.5,10.3z M18.3,9.5L18.3,9.5C18.3,9.4,18.3,9.4,18.3,9.5c0-0.1,0.1-0.2,0.1-0.2l0,0l0,0.2L18.3,9.5z
		 M18.5,9.5L18.5,9.5C18.5,9.5,18.5,9.5,18.5,9.5L18.5,9.5L18.5,9.5z M18.3,9.4C18.3,9.4,18.3,9.4,18.3,9.4L18.3,9.4
		C18.2,9.4,18.2,9.4,18.3,9.4l0-0.2c0,0,0,0,0,0l0.1,0c0,0,0,0,0,0L18.3,9.4z M18.3,8.5c0.1,0.1,0.2,0.2,0.3,0.3l0,0c0,0,0,0,0,0
		l-0.2-0.2L18.3,8.5z M18.6,9.4C18.5,9.4,18.5,9.4,18.6,9.4L18.6,9.4L18.6,9.4L18.6,9.4z M18.5,10.4C18.5,10.4,18.5,10.4,18.5,10.4
		L18.5,10.4C18.5,10.4,18.5,10.4,18.5,10.4l-0.2,0l0,0L18.5,10.4L18.5,10.4z M18.4,10.3L18.4,10.3L18.4,10.3L18.4,10.3z M18.4,10
		L18.4,10C18.4,10,18.4,10.1,18.4,10l0.1,0.1C18.4,10.1,18.4,10.1,18.4,10z M18.3,10.2C18.3,10.2,18.3,10.2,18.3,10.2L18.3,10.2
		C18.3,10.2,18.3,10.2,18.3,10.2c-0.1,0.1-0.1,0-0.1,0c0,0,0,0,0-0.1l0.1,0L18.3,10.2C18.3,10.1,18.3,10.1,18.3,10.2L18.3,10.2z
		 M18.2,9.5C18.2,9.4,18.2,9.4,18.2,9.5C18.2,9.4,18.2,9.4,18.2,9.5L18.2,9.5L18.2,9.5C18.2,9.5,18.2,9.5,18.2,9.5z M18.1,9
		l-0.6-0.3c0,0,0-0.1,0.1-0.1L18.1,9z M18,8.2c0.1,0.1,0.2,0.2,0.3,0.3l0,0.1L18,8.2C17.9,8.2,17.9,8.2,18,8.2z M18.1,8.1l0.1,0.3
		c-0.1-0.1-0.1-0.1-0.2-0.2C18.1,8.1,18.1,8.1,18.1,8.1z M18.4,7.9l0.2,0.7c-0.1-0.1-0.2-0.2-0.3-0.3L18.2,8C18.3,8,18.3,8,18.4,7.9
		z M18.9,8.7c-0.1,0-0.2,0-0.3,0.1c0,0,0,0,0,0l-0.2-0.8c0.1,0,0.2-0.1,0.3-0.1L18.9,8.7z M19.1,7.8l0.1,0.7l-0.1,0.2
		c0,0-0.1,0-0.1,0l-0.2-0.9C18.9,7.8,19,7.8,19.1,7.8z M19.5,7.9l-0.2,0.5l-0.1-0.6C19.3,7.8,19.4,7.8,19.5,7.9z M19.8,7.9l-0.4,0.8
		c0,0,0,0-0.1,0l-0.1-0.3l0.3-0.6C19.6,7.9,19.7,7.9,19.8,7.9z M20.1,8.1l-0.4,0.8c0,0-0.1-0.1-0.1-0.1c0,0-0.1,0-0.1,0L19.8,8
		c0,0,0,0,0.1,0C19.9,8,20,8.1,20.1,8.1z M20.3,8.3l-0.4,0.8c0-0.1-0.1-0.1-0.2-0.2l0.4-0.8C20.2,8.2,20.2,8.2,20.3,8.3z M20.9,9
		L20,9.2c0,0,0-0.1-0.1-0.1l0.4-0.8C20.6,8.5,20.8,8.8,20.9,9z M20.9,9.3l-0.9,0.1c0-0.1,0-0.1-0.1-0.2l0.9-0.1
		C20.9,9.1,20.9,9.2,20.9,9.3z M21,9.6l-0.9,0.1c0-0.1,0-0.2,0-0.3l0.9-0.1C21,9.4,21,9.5,21,9.6z M20.1,9.8l0.3,0.2L20.1,10
		C20.1,10,20.1,9.9,20.1,9.8z M21,9.9L20.5,10l-0.3-0.2L21,9.7C21,9.7,21,9.8,21,9.9z M20.9,10.2L20.6,10L21,9.9
		C21,10,21,10.1,20.9,10.2z M20.8,10.5l-0.7-0.4c0,0,0,0,0,0l0.4-0.1l0.4,0.2C20.9,10.3,20.9,10.4,20.8,10.5z M19.9,10.4
		c0-0.1,0.1-0.1,0.1-0.2c0,0,0,0,0,0l0.7,0.4c0,0.1-0.1,0.2-0.1,0.2L19.9,10.4z M20.4,11.1l-0.6-0.4l0-0.1c0.1,0,0.1-0.1,0.2-0.2
		l0.7,0.4C20.6,10.9,20.5,11,20.4,11.1z M19.8,10.8l0.6,0.4c-0.1,0.1-0.3,0.2-0.5,0.3L19.8,10.8z M19.6,11.5l-0.2-0.8
		c0.1,0,0.1,0,0.1-0.1l0.1,0.1l0.1,0.7C19.8,11.5,19.7,11.5,19.6,11.5z M19.2,11.6l-0.2-0.8c0.1,0,0.2,0,0.3,0l0.2,0.8
		C19.4,11.6,19.3,11.6,19.2,11.6z M19,11.6L18.9,11l0.1-0.2l0.2,0.8C19.1,11.6,19.1,11.6,19,11.6z M18.7,11.5l0.2-0.4l0.1,0.5
		C18.9,11.6,18.8,11.5,18.7,11.5z M18.4,11.4l0.4-0.7l0.1,0.3l-0.2,0.5C18.5,11.5,18.5,11.5,18.4,11.4z M18.2,11.3l0.4-0.7
		c0,0,0.1,0.1,0.1,0.1c0,0,0.1,0,0.1,0l-0.4,0.7c0,0,0,0,0,0C18.3,11.4,18.2,11.3,18.2,11.3z M18,11.2l0.4-0.8c0,0,0.1,0.1,0.2,0.1
		l-0.4,0.7C18.1,11.3,18,11.2,18,11.2z M17.4,10.5l0.9-0.1c0,0,0,0,0,0l-0.4,0.8C17.7,11,17.5,10.7,17.4,10.5z M17.3,10.2l0.8-0.1
		c0,0.1,0.1,0.2,0.1,0.2l-0.9,0.1C17.4,10.4,17.3,10.3,17.3,10.2z M17.2,9.9l0.7-0.1c0.1,0,0.1,0.1,0.2,0.1c0,0,0,0.1,0,0.1
		l-0.8,0.1C17.3,10.1,17.3,10,17.2,9.9z M17.2,9.7l0.4-0.1c0.1,0,0.1,0.1,0.2,0.1l-0.6,0.1C17.2,9.8,17.2,9.8,17.2,9.7z M17.2,9.7
		c0-0.1,0-0.2,0-0.3c0.1,0.1,0.2,0.2,0.3,0.3L17.2,9.7z M15.5,6.2c0-0.1,0.1-0.1,0.1-0.2c0.5,0.5,1,0.9,1.1,1
		c0.1,0.1,0.3,0.3,0.5,0.4c0,0-0.1,0.1-0.1,0.1L15.5,6.2z M15.1,6.9c0-0.1,0.1-0.2,0.2-0.3L16.9,8c0,0,0,0.1-0.1,0.1l0,0
		c0,0-0.1,0-0.1,0c0,0,0,0.1,0,0.1l0,0c0,0,0,0,0,0c-0.1-0.1-0.1-0.1-0.2-0.2C16.1,7.7,15.5,7.2,15.1,6.9z M13.9,4.3
		c0.2,0.1,0.5,0.2,0.9,0.8c0.2,0.2,0.3,0.4,0.5,0.6c-0.1,0.1-0.1,0.1-0.1,0.1c0,0-0.1,0-0.1-0.1C15,5.5,14,4.4,13.9,4.3
		C13.9,4.3,13.9,4.3,13.9,4.3z M11,4.8c0,0.1-0.1,0.1-0.1,0.1c0,0-0.4,0.1-0.5,0.1c-0.2,0-0.2,0-0.2-0.1c-0.1,0-0.2-0.1-0.3-0.1
		c-0.1,0-0.1,0-0.1-0.1c0,0,0.2-0.4,0.2-0.4c0,0,0.7,0.4,0.8,0.4C11,4.8,11.1,4.8,11,4.8z M13.6,9.1C13.5,9.1,13.6,9,13.6,9.1
		c0-0.1,0-0.2,0-0.2c0,0,0.2,0,0.2,0.1C13.8,9.1,13.6,9.1,13.6,9.1z M13.3,9.5c0,0,0.1,0,0.2,0c0.1,0,0.1-0.1,0.1-0.1
		c0.1,0,0.1,0,0.1,0.1c0,0.1,0.1,0.3,0,0.4c-0.1,0.1-0.3,0.1-0.3,0.1C13.3,9.9,13.2,9.6,13.3,9.5z M13,8.7c0.1,0,0.2-0.2,0.1-0.3
		c0-0.1,0.1-0.3,0.2-0.3l0.1,0c0,0,0.1,0.1,0.1,0.2c0,0.1,0,0.1,0,0.2c0,0-0.1,0.2-0.1,0.3c0,0.1-0.2,0.1-0.2,0.1
		C13.1,8.9,13.1,8.8,13,8.7z M12.9,8.5l0.2-0.1C13.1,8.4,13,8.6,12.9,8.5C12.9,8.6,12.9,8.5,12.9,8.5z M12.6,8.2c0.1,0,0.3,0,0.2,0
		c0,0.1-0.1,0.1-0.1,0.1c0,0-0.1,0-0.1,0S12.5,8.2,12.6,8.2z M11.7,7.8l0.1-0.3c0,0,0.5-0.1,0.5-0.1c0,0-0.5,0.7-0.6,0.8
		C11.7,8.3,11.7,7.8,11.7,7.8z M11,8.8c0,0,0.2-0.4,0.2-0.4c0,0,0,0.1,0,0.1s-0.1,0.3-0.1,0.3C11.2,8.9,11.1,8.8,11,8.8z M9.9,12.7
		c0.1-0.1,0.2-0.1,0.2-0.1c0,0,0.3,0.1,0.3,0.1s0,0.1,0,0.2c0,0,0,0,0,0c0,0,0,0,0,0.1l0,0c0,0,0,0-0.1,0c0,0,0,0,0,0.1c0,0,0,0,0,0
		c0,0-0.1-0.1-0.1-0.1l0,0C10,12.9,9.9,12.8,9.9,12.7z M8.5,14.5L8.5,14.5C8.6,14.5,8.6,14.5,8.5,14.5c0.1,0,0.1-0.1,0.1-0.1
		c0,0,0.1,0,0.1,0c0,0,0,0,0-0.1l0,0c0,0,0,0,0.1,0c0,0,0,0,0-0.1c0,0,0.1,0,0.1,0c0,0,0,0,0-0.1l0,0c0,0,0,0,0.1,0c0,0,0,0,0-0.1
		l0.3,0c0,0.1,0,0.2,0,0.4L8.5,14.5z M9.2,13.9C9.3,13.9,9.3,13.9,9.2,13.9c0.1,0,0.1,0.1,0.1,0.1l-0.2,0c0,0,0,0,0,0L9.2,13.9
		C9.2,14,9.2,14,9.2,13.9C9.3,13.9,9.3,13.9,9.2,13.9C9.2,13.9,9.2,13.8,9.2,13.9c-0.1,0-0.1,0-0.1,0l0,0c0,0,0,0-0.1,0
		c0,0,0,0,0,0.1l0,0c0,0,0,0-0.1,0c0,0,0,0,0,0l-0.5,0.1c0-0.1,0-0.2,0-0.2c0,0,0,0,0,0l0.8-0.1c0,0,0,0,0,0.1L9.2,13.9
		C9.3,13.8,9.3,13.8,9.2,13.9C9.2,13.8,9.2,13.9,9.2,13.9z M8.6,14.3C8.6,14.3,8.6,14.3,8.6,14.3C8.5,14.4,8.5,14.4,8.6,14.3
		l-0.1,0.1c0,0,0,0,0,0l0,0c0-0.1,0-0.2,0-0.2l0.4-0.1l0,0c0,0,0,0-0.1,0c0,0,0,0,0,0.1c0,0-0.1,0-0.1,0c0,0,0,0,0,0.1L8.6,14.3
		C8.7,14.3,8.7,14.3,8.6,14.3C8.6,14.3,8.6,14.3,8.6,14.3z M9.1,15l-0.5-0.5l0.7-0.1C9.3,14.6,9.2,14.8,9.1,15z M8.3,14.7
		C8.3,14.7,8.3,14.7,8.3,14.7C8.3,14.7,8.3,14.7,8.3,14.7C8.3,14.6,8.3,14.6,8.3,14.7L8.3,14.7c0.1-0.1,0.1-0.1,0.1-0.1
		c0,0,0,0,0-0.1l0,0c0,0,0,0,0,0l0,0L9.1,15c0,0.1-0.1,0.1-0.1,0.2L8.3,14.7z M8.3,13.9L8.3,13.9C8.4,13.8,8.4,13.8,8.3,13.9L8.4,14
		c0,0,0,0,0,0l-0.1,0c0,0,0,0,0,0L8.3,13.9L8.3,13.9z M8.3,13.8L8.3,13.8C8.3,13.8,8.3,13.7,8.3,13.8C8.3,13.7,8.3,13.8,8.3,13.8
		C8.3,13.8,8.3,13.8,8.3,13.8z M7.7,13.1L7.7,13.1l0,0.1l-0.2,0c0,0,0,0,0,0l0-0.1c0,0,0,0,0,0L7.7,13.1z M7.5,13.1L7.5,13.1
		C7.6,13,7.6,13,7.5,13.1C7.6,13,7.6,13,7.5,13.1l0.1,0C7.6,13.1,7.6,13.1,7.5,13.1z M7.4,13.3l0,0.2c0,0,0,0-0.1,0l-0.2-0.1
		c0,0,0,0,0,0C7.3,13.3,7.4,13.3,7.4,13.3z M7.3,13.2C7.3,13.2,7.3,13.2,7.3,13.2C7.3,13.2,7.3,13.2,7.3,13.2
		C7.3,13.2,7.3,13.2,7.3,13.2L7.3,13.2L7.3,13.2z M7.2,13.2C7.2,13.2,7.2,13.2,7.2,13.2C7.2,13.2,7.2,13.2,7.2,13.2
		C7.2,13.2,7.2,13.2,7.2,13.2z M6.6,13.7C6.6,13.7,6.6,13.7,6.6,13.7L6.6,13.7L6.6,13.7C6.6,13.6,6.6,13.6,6.6,13.7L6.6,13.7
		C6.6,13.6,6.6,13.6,6.6,13.7C6.6,13.6,6.6,13.7,6.6,13.7z M6.5,13.9C6.5,13.9,6.5,13.9,6.5,13.9L6.5,13.9
		C6.5,13.9,6.5,13.9,6.5,13.9C6.5,13.8,6.5,13.8,6.5,13.9C6.5,13.9,6.5,13.9,6.5,13.9z M6.4,14.1C6.4,14.1,6.5,14,6.4,14.1
		C6.5,14,6.5,14,6.4,14.1L6.4,14.1C6.5,14.1,6.5,14.1,6.4,14.1z M6.5,14.2L6.5,14.2C6.5,14.2,6.5,14.2,6.5,14.2
		C6.5,14.2,6.5,14.2,6.5,14.2L6.5,14.2C6.5,14.2,6.5,14.2,6.5,14.2z M6.6,14.7l-0.1,0L6.6,14.7C6.5,14.6,6.5,14.6,6.6,14.7z
		 M6.6,14.1C6.6,14.1,6.6,14.1,6.6,14.1l0,0.2c0,0,0,0,0,0c0,0,0,0,0,0l0,0C6.6,14.3,6.6,14.2,6.6,14.1C6.6,14.2,6.5,14.2,6.6,14.1
		C6.5,14.2,6.5,14.2,6.6,14.1z M6.5,14.1L6.5,14.1L6.5,14.1L6.5,14.1z M6.5,14.4L6.5,14.4C6.5,14.4,6.5,14.4,6.5,14.4
		C6.5,14.4,6.5,14.4,6.5,14.4z M6.5,13.8L6.5,13.8C6.5,13.8,6.5,13.8,6.5,13.8L6.5,13.8L6.5,13.8C6.5,13.8,6.5,13.8,6.5,13.8z
		 M6.6,13.9L6.6,13.9C6.6,13.9,6.6,13.9,6.6,13.9C6.6,13.9,6.6,13.9,6.6,13.9z M6.6,14.5L6.6,14.5C6.6,14.5,6.6,14.5,6.6,14.5
		C6.7,14.5,6.7,14.6,6.6,14.5c0.1,0.1,0.1,0.1,0.1,0.1C6.7,14.6,6.7,14.6,6.6,14.5C6.7,14.6,6.7,14.5,6.6,14.5L6.6,14.5
		C6.6,14.5,6.6,14.5,6.6,14.5z M6.8,14.8C6.8,14.8,6.8,14.7,6.8,14.8L6.8,14.8C6.8,14.7,6.8,14.7,6.8,14.8L6.8,14.8L6.8,14.8
		C6.9,14.8,6.9,14.8,6.8,14.8L6.8,14.8C6.8,14.8,6.8,14.8,6.8,14.8z M7.1,14.9L7.1,14.9C7.1,14.9,7.1,14.9,7.1,14.9
		C7,14.9,7,14.9,7.1,14.9c-0.1,0-0.1,0-0.1,0l0,0l0,0L7.1,14.9C7,14.9,7,14.9,7.1,14.9L7.1,14.9C7.1,14.9,7.1,14.9,7.1,14.9z
		 M7,14.8L7,14.8l0.1,0.1C7.1,14.8,7.1,14.8,7,14.8z M6.9,14.7l0.2,0L7,14.8C6.9,14.8,6.9,14.7,6.9,14.7z M7.1,14.6l-0.2,0
		c0,0,0,0,0,0l0.1-0.1C7,14.5,7,14.6,7.1,14.6z M7,13.6L7,13.6L7,13.6L7,13.6z M6.8,14.3C6.8,14.3,6.8,14.3,6.8,14.3L6.8,14.3
		L6.8,14.3L6.8,14.3z M6.8,14.2l-0.1-0.1l0.1,0C6.8,14.1,6.8,14.2,6.8,14.2L6.8,14.2z M6.8,13.9l-0.1-0.1c0,0,0,0,0,0l0.2,0l0,0
		C6.9,13.8,6.8,13.8,6.8,13.9z M6.7,14.4L6.7,14.4l0.2,0c0,0,0,0,0,0.1l-0.1,0.1C6.7,14.5,6.7,14.5,6.7,14.4z M6.6,14.1l0.1,0.1
		l-0.1,0.1l0,0c0,0,0-0.1,0-0.1C6.6,14.2,6.6,14.2,6.6,14.1z M6.6,14.1c0-0.1,0-0.2,0-0.2L6.8,14c0,0,0,0,0,0.1L6.6,14.1z M6.6,13.5
		C6.6,13.5,6.7,13.5,6.6,13.5c0.1-0.1,0.1-0.1,0.1-0.1l0.1,0c0,0,0,0,0,0C6.8,13.5,6.7,13.5,6.6,13.5C6.7,13.5,6.7,13.5,6.6,13.5
		L6.6,13.5C6.6,13.5,6.6,13.5,6.6,13.5z M6.8,13.4C6.8,13.4,6.8,13.4,6.8,13.4C6.8,13.4,6.8,13.4,6.8,13.4L6.8,13.4
		C6.8,13.4,6.8,13.4,6.8,13.4L6.8,13.4z M6.9,13.5C6.9,13.5,6.9,13.5,6.9,13.5L6.9,13.5l0,0.1l-0.2,0C6.8,13.6,6.8,13.6,6.9,13.5
		C6.8,13.6,6.8,13.6,6.9,13.5C6.8,13.6,6.8,13.6,6.9,13.5C6.8,13.6,6.8,13.5,6.9,13.5z M6.8,13.1L7,13.2c0,0-0.1,0-0.1,0L6.8,13.1z
		 M7,13.2L7,13.2L7,13.2C7,13.2,7,13.2,7,13.2c0,0.1,0,0.1,0,0.1c0,0-0.1,0-0.1,0c0,0,0,0,0,0l0-0.1L7,13.2z M7.1,13.4
		C7.1,13.4,7.1,13.4,7.1,13.4C7.1,13.4,7.1,13.4,7.1,13.4C7.1,13.4,7.1,13.4,7.1,13.4l0.1,0.2c0,0-0.1,0-0.1,0.1l-0.1-0.1l0,0
		c0,0,0,0,0,0C7,13.4,7,13.4,7.1,13.4C7,13.4,7,13.4,7.1,13.4C7,13.4,7,13.4,7.1,13.4z M7.1,13.2C7.1,13.2,7.2,13.1,7.1,13.2
		C7.2,13.2,7.2,13.2,7.1,13.2C7.2,13.2,7.2,13.2,7.1,13.2C7.1,13.2,7.1,13.2,7.1,13.2L7.1,13.2z M7.3,13.5
		C7.3,13.5,7.3,13.5,7.3,13.5c-0.1,0-0.1,0-0.1,0l0-0.2L7.3,13.5z M7.2,14.9l0-0.2l0,0c0.1,0,0.1,0,0.2,0.1l0.1,0l0,0L7.2,14.9
		C7.3,14.9,7.2,14.9,7.2,14.9z M7.2,15L7.2,15C7.2,15,7.2,15,7.2,15L7.2,15L7.2,15z M7.3,15.1L7.3,15.1C7.3,15.1,7.3,15,7.3,15.1
		C7.3,15,7.3,15.1,7.3,15.1z M7.3,15C7.3,15,7.3,15,7.3,15L7.3,15L7.3,15C7.3,15,7.3,15,7.3,15z M7.4,14.9L7.4,14.9
		C7.4,14.9,7.4,14.9,7.4,14.9L7.4,14.9z M7.4,14.7L7.4,14.7L7.4,14.7L7.4,14.7C7.4,14.7,7.4,14.7,7.4,14.7z M7.5,14.9
		C7.5,14.9,7.5,14.9,7.5,14.9L7.5,14.9L7.5,14.9z M8.2,14.7C8.2,14.7,8.2,14.7,8.2,14.7C8.2,14.8,8.2,14.8,8.2,14.7
		c0,0.1-0.1,0.1-0.1,0.1c0,0,0,0,0,0l0,0C8.1,14.8,8.1,14.8,8.2,14.7C8.1,14.8,8.1,14.8,8.2,14.7L8.2,14.7z M8.1,14.7L8.1,14.7
		C8.1,14.7,8.1,14.6,8.1,14.7C8.1,14.6,8.1,14.6,8.1,14.7C8.1,14.6,8.1,14.7,8.1,14.7z M8,14.7l0-0.1l0.1,0C8.1,14.6,8,14.7,8,14.7z
		 M8,15.2l-0.2-0.2c0.1,0,0.1,0,0.2-0.1L8,15.2z M7.8,14.9C7.8,14.9,7.8,14.9,7.8,14.9C7.8,14.9,7.8,14.9,7.8,14.9
		C7.9,14.9,7.9,14.9,7.8,14.9l0.1,0L7.8,14.9C7.8,15,7.8,15,7.8,14.9L7.8,14.9z M7.9,14.9L7.9,14.9C7.9,14.9,7.9,14.9,7.9,14.9
		L7.9,14.9L7.9,14.9z M7.8,14.8C7.8,14.8,7.8,14.8,7.8,14.8L7.8,14.8L7.8,14.8C7.8,14.8,7.8,14.8,7.8,14.8z M7.7,14.7L7.7,14.7
		C7.7,14.6,7.8,14.6,7.7,14.7l0.2-0.1l0,0.1c0,0-0.1,0-0.1,0.1L7.7,14.7z M7.9,14.5C7.9,14.5,7.9,14.5,7.9,14.5L7.9,14.5L7.9,14.5z
		 M7.8,13.5C7.8,13.5,7.8,13.5,7.8,13.5l0-0.1C7.8,13.4,7.8,13.4,7.8,13.5L7.8,13.5z M7.7,15L7.7,15L7.7,15C7.7,15,7.7,15,7.7,15
		L7.7,15z M7.7,14.9C7.7,14.9,7.6,14.9,7.7,14.9C7.6,14.9,7.6,14.9,7.7,14.9l-0.2-0.1l0.1-0.1c0,0,0,0,0,0c0,0,0.1,0,0.1,0l0,0
		L7.7,14.9C7.7,14.9,7.7,14.9,7.7,14.9z M7.7,15L7.7,15C7.6,15.1,7.6,15.1,7.7,15l-0.2,0c0,0,0,0,0,0l0,0c0,0,0,0,0,0
		C7.6,15,7.6,15,7.7,15C7.6,15,7.6,15,7.7,15L7.7,15z M7.5,13.3c0.1,0,0.1,0,0.2,0l-0.1,0.1L7.5,13.3z M7.7,13.3
		C7.7,13.3,7.7,13.3,7.7,13.3l0,0.2c0,0,0,0,0,0c-0.1,0-0.1,0-0.2-0.1L7.7,13.3z M7.7,13C7.7,13,7.7,13,7.7,13
		C7.7,13,7.8,12.9,7.7,13l0.1-0.1c0,0,0,0,0.1,0c0,0,0,0,0-0.1c0,0,0,0,0.1,0c0,0,0,0,0-0.1l0,0c0,0,0,0,0.1,0c0,0,0,0,0-0.1
		c0,0,0,0,0.1,0c0,0,0,0,0-0.1l0,0c0,0,0,0,0,0l-0.4,0.5c0,0-0.1,0-0.1,0L7.7,13z M7.8,13.2C7.8,13.2,7.9,13.2,7.8,13.2
		c0.1,0,0.1,0.1,0.2,0.1l-0.1,0.1c0,0,0,0,0,0c0,0,0,0-0.1,0C7.8,13.3,7.8,13.3,7.8,13.2C7.8,13.3,7.8,13.3,7.8,13.2L7.8,13.2
		L7.8,13.2z M8,14.5L8,14.5L8,14.5C7.9,14.5,7.9,14.5,8,14.5L8,14.5z M8,14.4c0-0.1,0.1-0.1,0.1-0.2l0.1,0l0.1,0.1
		c0,0.1-0.1,0.2-0.1,0.2l0,0L8,14.4z M8.2,14.2L8.2,14.2C8.2,14.2,8.2,14.2,8.2,14.2L8.2,14.2z M8.1,14.2
		C8.1,14.2,8.1,14.2,8.1,14.2L8.1,14.2L8.1,14.2L8.1,14.2z M8,13.9C8.1,13.9,8.1,13.9,8,13.9l0.2-0.1c0,0,0,0,0,0l-0.1,0.2l0,0
		C8.1,14,8.1,14,8,13.9C8,14,8,13.9,8,13.9z M8.2,14c0,0.1,0,0.1,0,0.2l-0.1,0l0,0L8.2,14z M8.3,14.4C8.3,14.4,8.3,14.4,8.3,14.4
		L8.3,14.4C8.3,14.4,8.3,14.4,8.3,14.4l0.1,0.1l-0.1,0L8.3,14.4z M8.2,14.6C8.2,14.6,8.2,14.6,8.2,14.6C8.2,14.6,8.2,14.6,8.2,14.6
		L8.2,14.6C8.2,14.6,8.2,14.6,8.2,14.6L8.2,14.6z M8.3,14.6L8.3,14.6C8.3,14.6,8.3,14.6,8.3,14.6L8.3,14.6z M8.4,14.2
		C8.4,14.2,8.4,14.2,8.4,14.2c0,0.1,0,0.2,0,0.2l-0.1-0.1l0,0c0,0,0,0,0,0L8.4,14.2L8.4,14.2z M8.4,14.1L8.4,14.1
		C8.4,14.1,8.4,14.1,8.4,14.1L8.4,14.1z M8.4,13.7C8.4,13.7,8.4,13.7,8.4,13.7L8.4,13.7C8.4,13.7,8.4,13.7,8.4,13.7z M8.4,14.5
		C8.4,14.5,8.4,14.5,8.4,14.5L8.4,14.5C8.4,14.5,8.4,14.5,8.4,14.5C8.4,14.5,8.4,14.5,8.4,14.5L8.4,14.5z M8.7,15.5L8,15
		c0.1-0.1,0.2-0.1,0.2-0.2l0.6,0.6C8.8,15.4,8.8,15.5,8.7,15.5z M8.1,15.3L8,15l0.6,0.5c0,0-0.1,0.1-0.1,0.1L8.1,15.3z M8.2,15.9
		l-0.1-0.5l0.4,0.3C8.4,15.8,8.3,15.8,8.2,15.9z M7.9,15.9l-0.1-0.8L8,15.3l0.1,0.5C8.1,15.9,8,15.9,7.9,15.9z M7.5,15.1
		c0,0,0.1,0,0.1,0c0,0,0.1,0,0.1,0l0.1,0.8c0,0,0,0,0,0c-0.1,0-0.1,0-0.2,0L7.5,15.1z M7.4,16l-0.2-0.9c0.1,0,0.1,0,0.2,0L7.6,16
		C7.5,16,7.5,16,7.4,16z M6.5,15.8l0.6-0.7c0,0,0,0,0,0L7.4,16C7.1,16,6.8,15.9,6.5,15.8z M6.3,15.6L6.9,15c0.1,0,0.2,0.1,0.2,0.1
		l-0.6,0.7C6.4,15.7,6.3,15.7,6.3,15.6z M6.1,15.4l0.6-0.6c0.1,0.1,0.1,0.1,0.2,0.2l-0.6,0.6C6.2,15.5,6.1,15.5,6.1,15.4z M5.9,15.2
		l0.5-0.5l0.2,0c0,0,0,0,0,0L6,15.4C6,15.3,5.9,15.3,5.9,15.2z M5.7,14.8l0.6-0.1l-0.4,0.5C5.8,15.1,5.7,15,5.7,14.8z M5.6,14.6
		l0.9-0.1c0,0,0,0.1,0,0.1l-0.1,0.1l-0.7,0.1C5.6,14.7,5.6,14.6,5.6,14.6z M5.5,14.3l0.8-0.1c0,0.1,0,0.1,0,0.2c0,0,0,0,0,0.1
		l-0.9,0.1C5.6,14.4,5.5,14.4,5.5,14.3z M6.4,13.9l-0.1-0.1l0.1,0C6.4,13.8,6.4,13.8,6.4,13.9z M5.5,13.9l0.7-0.1l0.2,0.1
		c0,0.1,0,0.1,0,0.2l-0.9,0.1C5.5,14.1,5.5,14,5.5,13.9z M5.7,13.3l0.5,0.4l-0.6,0.1C5.6,13.7,5.6,13.5,5.7,13.3z M5.8,13.1l0.7,0.6
		c0,0,0,0,0,0l-0.2,0l-0.5-0.5C5.7,13.2,5.8,13.2,5.8,13.1z M6,12.8l0.6,0.6c-0.1,0.1-0.1,0.2-0.2,0.2L5.8,13C5.9,13,6,12.9,6,12.8z
		 M6.8,13l0,0.2c0,0-0.1,0.1-0.1,0.1l-0.7-0.6c0.1-0.1,0.1-0.1,0.2-0.2L6.8,13z M6.6,12.4l0.1,0.6l-0.4-0.4
		C6.4,12.5,6.5,12.4,6.6,12.4z M7.1,13.1C7,13.1,7,13.1,7.1,13.1L6.8,13l-0.1-0.6c0.1,0,0.1-0.1,0.2-0.1L7.1,13.1z M7.4,13
		C7.4,13,7.4,13,7.4,13c-0.1,0-0.1,0-0.2,0c0,0-0.1,0-0.1,0l-0.2-0.8c0,0,0.1,0,0.1,0c0.1,0,0.1,0,0.2,0L7.4,13z M7.5,12.2l0.1,0.7
		c0,0,0,0-0.1,0c0,0,0,0,0,0l0,0c0,0,0,0-0.1,0c0,0,0,0,0,0l-0.1-0.8C7.4,12.2,7.4,12.2,7.5,12.2z M8.4,12.5L8.4,12.5
		C8.4,12.4,8.3,12.4,8.4,12.5C8.3,12.5,8.3,12.5,8.4,12.5c-0.1,0.1-0.1,0.1-0.1,0.1l0,0C8.3,12.6,8.3,12.6,8.4,12.5
		c-0.1,0.1-0.1,0.1-0.2,0.1c0,0,0,0,0,0.1l0,0c0,0,0,0-0.1,0c0,0,0,0,0,0.1c0,0,0,0-0.1,0c0,0,0,0,0,0.1l0,0c0,0,0,0-0.1,0
		c0,0,0,0,0,0.1c0,0,0,0-0.1,0c0,0,0,0,0,0l0,0c0,0,0,0-0.1,0l-0.1-0.7C7.9,12.2,8.1,12.3,8.4,12.5z M8.6,12.6L8,13.2
		c-0.1,0-0.1-0.1-0.2-0.1l0.5-0.6c0,0,0,0,0,0c0,0,0,0,0,0l0,0l0,0c0,0,0,0,0,0C8.5,12.5,8.6,12.6,8.6,12.6z M8.8,12.7
		c-0.2,0.2-0.5,0.4-0.7,0.5c0,0,0,0,0,0l0.6-0.6C8.7,12.7,8.7,12.7,8.8,12.7z M9.2,13.3l-0.3,0C9,13.3,9,13.3,9.1,13.2
		C9.1,13.2,9.2,13.3,9.2,13.3z M9.3,13.7l-0.9,0.1c0,0,0,0,0,0l0.2-0.3c0,0,0.1,0,0.1-0.1l0.4-0.1C9.2,13.5,9.3,13.6,9.3,13.7z
		 M10.3,11.4c0,0.1,0,0.2,0,0.2c0,0-0.3,0.3-0.7,0.6c0,0-0.1,0-0.1,0l0,0C9.4,12.1,9.3,12,9.3,12l0,0c0,0,0,0,0.1,0c0,0,0,0,0-0.1
		c0,0,0,0,0.1,0c0,0,0,0,0-0.1l0,0c0,0,0,0,0.1,0c0,0,0,0,0-0.1c0,0,0,0,0.1,0c0,0,0,0,0-0.1l0,0c0,0,0,0,0.1,0c0,0,0,0,0-0.1
		c0,0,0,0,0.1,0c0,0,0,0,0-0.1l0,0c0,0,0,0,0.1,0c0,0,0,0,0-0.1c0,0,0,0,0.1,0c0,0,0,0,0-0.1l0,0C10.2,11.4,10.2,11.4,10.3,11.4
		C10.3,11.4,10.3,11.4,10.3,11.4C10.3,11.4,10.3,11.4,10.3,11.4z M9.5,5.7c0.1-0.1,0.4-0.1,0.5-0.1c0,0,0.1-0.1,0.1-0.1
		c0,0,0.2,0,0.2,0c0,0,0.1,0.1,0.2,0.1c0,0,0.2,0,0.2,0c0.1,0,0.2,0,0.3,0c0,0,0.1-0.1,0.1-0.1c0,0,0.1-0.1,0.1-0.1
		c0,0,0.1-0.1,0.1-0.1c0,0,0.1,0,0.1,0c0,0,0.1,0.4,0.1,0.5c0,0.1,0.2,0.1,0.3,0c0.1,0,0.3-0.8,0.3-0.8s0.1,0,0.2,0
		c0.1,0,0.2,0,0.2,0s0,0.1,0,0.2c0.1,0.1,0.4,0.3,0.4,0.3s-0.1,0-0.1,0.1c0,0-0.1,0.2-0.1,0.2s-0.2,0-0.3,0c-0.1,0-0.2,0-0.3-0.1
		c-0.1-0.1-0.3,0.1-0.3,0.2c-0.1,0.1,0,0.2,0,0.2s0,0.1,0,0.2c0,0.1-0.1,0.1-0.1,0.2c0,0-0.2,0-0.2,0c0,0-0.1,0.1-0.1,0.1
		c0,0-0.3,0-0.3,0c0,0-0.2-0.2-0.2-0.2c0,0-0.3,0-0.3,0c-0.1,0-0.3-0.1-0.4-0.1c-0.1,0-0.1-0.1-0.2-0.1C9.8,6.2,9.5,6,9.4,5.9
		C9.3,5.9,9.4,5.8,9.5,5.7z"/>
</g>
</svg>
