<?xml version="1.0" encoding="utf-8"?>
<!-- Generator: Adobe Illustrator 19.0.0, SVG Export Plug-In . SVG Version: 6.00 Build 0)  -->
<svg version="1.1" xmlns="http://www.w3.org/2000/svg" xmlns:xlink="http://www.w3.org/1999/xlink" x="0px" y="0px"
	 viewBox="0 0 20 20" style="enable-background:new 0 0 20 20;" xml:space="preserve">
<style type="text/css">
	.st0{display:none;}
	.st1{display:inline;}
</style>
<g id="tent" class="st0">
	<path id="Shape" class="st1" d="M3.1,3.7c-0.1,0-0.2,0-0.3,0C2.4,3.7,2,3.9,1.8,4.3s-0.2,0.8,0,1.2S2.4,6.1,2.8,6h2.8
		c0.5,0,1-0.3,1.2-0.8C7,4.7,6.9,4.1,6.6,3.8C6.2,3.5,5.6,3.3,5.1,3.5C4.9,3.1,4.5,2.8,4,2.9C3.6,2.9,3.2,3.3,3.1,3.7L3.1,3.7z"/>
	<path id="Shape_1_" class="st1" d="M15,4.4h2.8c0.4,0,0.9-0.3,1.1-0.7s0.1-0.9-0.1-1.3S17.9,1.9,17.5,2c-0.1-0.4-0.5-0.8-0.9-0.8
		s-0.9,0.2-1.1,0.6C15,1.6,14.4,1.7,14,2.1c-0.4,0.4-0.5,0.9-0.3,1.5C14,4,14.4,4.4,15,4.4z"/>
	<path id="Shape_2_" class="st1" d="M12.3,0.3c-0.1-0.1-0.2-0.1-0.3-0.1c-0.1,0-0.3,0.1-0.3,0.2l-1.4,2.8L10.7,4l1.6-3.3
		C12.4,0.5,12.4,0.4,12.3,0.3L12.3,0.3z"/>
	<path id="Shape_3_" class="st1" d="M8.5,8.5c0.1-0.1,0.3-0.2,0.4-0.2c0.2,0,0.3,0.1,0.4,0.2L9.9,9l0.5-0.5c0.1-0.1,0.3-0.2,0.4-0.2
		c0.1,0,0.3,0.1,0.4,0.2L11.8,9l0.4-0.4L9.7,3.9L7.3,8.6L8,9L8.5,8.5z"/>
	<path id="Shape_4_" class="st1" d="M7.5,18l2.1-4.9l0,0L6,16.3C6.8,16.6,7.3,17.2,7.5,18L7.5,18z"/>
	<path id="Shape_5_" class="st1" d="M9.2,3.9l0.4-0.8L8.2,0.3C8.2,0.2,8,0.2,7.9,0.2c-0.1,0-0.3,0.1-0.3,0.1c-0.1,0.1-0.1,0.3,0,0.3
		L9.2,3.9z"/>
	<path id="Shape_6_" class="st1" d="M19.6,18.9h-1v-1.6c0-0.2-0.1-0.3-0.3-0.3c-0.2,0-0.3,0.1-0.3,0.3v1.6h-0.6l-4.8-9.5l-0.2,0.2
		c-0.3,0.3-0.7,0.3-0.9,0L11,9l-0.5,0.5c-0.1,0.1-0.1,0.1-0.1,0.1v3.4c0,0.1,0,0.1,0,0.1l2.5,5.7h-0.8L10,14.1l-2.1,4.9H6.9
		c-0.1-0.6-0.3-1.6-1.1-1.9c-0.3-0.1-0.4-0.3-0.4-0.5c-0.1-0.3,0.1-0.4,0.2-0.6l3.6-3.2c0.1-0.1,0.3-0.2,0.4-0.2V9.6
		c-0.1,0-0.1-0.1-0.1-0.1L9,9L8.5,9.5C8.3,9.6,8.2,9.7,8,9.7c-0.2,0-0.3-0.1-0.4-0.2L7.4,9.3l-4.9,9.5H2v-1.6c0-0.2-0.1-0.3-0.3-0.3
		S1.3,17,1.3,17.2v1.6h-1C0.1,18.9,0,19,0,19.2c0,0.2,0.1,0.3,0.3,0.3h19.3c0.2,0,0.3-0.1,0.3-0.3S19.8,18.9,19.6,18.9L19.6,18.9z
		 M10.9,10.5c-0.2,0-0.3-0.1-0.3-0.3c0-0.2,0.1-0.3,0.3-0.3s0.3,0.1,0.3,0.3C11.3,10.3,11.1,10.5,10.9,10.5z M9,9.8
		c0.2,0,0.3,0.1,0.3,0.3S9.2,10.5,9,10.5s-0.3-0.1-0.3-0.3S8.8,9.8,9,9.8z"/>
</g>
<g id="bike" class="st0">
	<g id="Layer_3" class="st1">
		<g id="XMLID_26_">
			<g id="XMLID_27_">
				<path id="XMLID_18_" d="M5.8,16.6l-2.5,0.9c-0.1,0.1-0.2,0.1-0.3,0.1c-0.3,0-0.6-0.2-0.7-0.5c-0.1-0.4,0.1-0.8,0.4-1l2.8-1
					c-0.6-0.8-1.5-1.3-2.5-1.3c-1.7,0-3.1,1.4-3.1,3.1s1.4,3.1,3.1,3.1c1.6,0,2.9-1.2,3-2.8C6,17,5.9,16.8,5.8,16.6z"/>
			</g>
		</g>
		<g id="XMLID_23_">
			<g id="XMLID_24_">
				<path id="XMLID_17_" d="M17,13.8L17,13.8l0.8,2.9c0.1,0.4-0.1,0.8-0.5,1c-0.1,0-0.1,0-0.2,0c-0.3,0-0.6-0.3-0.8-0.6l-0.8-2.9
					C15.9,13.9,16.4,13.8,17,13.8l-0.6-2.1h0.1c0.2-0.1,0.3-0.3,0.3-0.5l-0.3-1.1c-0.1-0.2-0.3-0.3-0.5-0.3h-0.1l-0.3-1.1
					c-0.1-0.3-0.3-0.5-0.6-0.6L13,7.9c-0.4-0.1-0.8,0.2-0.9,0.6C12,9,12.3,9.3,12.7,9.4l1.5,0.3l0.2,0.8l-1.5,0.4
					c-0.2-0.2-0.5-0.3-0.8-0.2l-0.8,0.3c-0.3,0.1-0.4,0.3-0.5,0.5l-1.7,0.4l-5.8-1.3c-0.4-0.1-0.8,0.2-0.9,0.6
					c-0.1,0.4,0.2,0.8,0.6,1L5,12.4l1.4,0.3l1.4,1.4c0.1,0.1,0.1,0.4,0,0.5l-1.3,1.6c0.3,0.4,0.6,0.9,0.8,0.9h4.3
					c0.5,0,1-0.2,1.3-0.5c0.3-0.3,0.5-0.8,0.5-1.3v-3l0.8-0.2l0.5-0.1l0.6,2.2c-0.5,0.3-0.9,0.7-1.1,1.1c-0.2,0.4-0.4,0.8-0.4,1.3
					c0,0.1,0,0.1,0,0.2c0,1.7,1.4,3.1,3.1,3.1s3.1-1.4,3.1-3.1S18.7,13.8,17,13.8z"/>
			</g>
		</g>
	</g>
</g>
<g id="bus">
	<path id="XMLID_13_" d="M19.9,14.3l-1-2.3c-0.4-0.8-1.2-1.3-2.1-1.3H2c-1.1,0-2,0.9-2,2v4.9c0,0.6,0.5,1.1,1.1,1.1h1.6
		C2.9,19.4,3.5,20,4.3,20s1.5-0.6,1.6-1.3H14c0.2,0.8,0.8,1.3,1.6,1.3s1.5-0.6,1.6-1.3h1.8c0.4,0,0.8-0.3,0.9-0.7c0-0.1,0-0.2,0-0.3
		V15C20,14.7,19.9,14.5,19.9,14.3z M1.7,14.7c-0.2,0-0.3-0.1-0.3-0.3v-2.7c0-0.2,0.1-0.3,0.3-0.3H4c0.2,0,0.3,0.1,0.3,0.3v2.7
		c0,0.2-0.1,0.3-0.3,0.3H1.7z M4.3,19.3c-0.6,0-1-0.4-1-1c0-0.6,0.4-1,1-1s1,0.4,1,1C5.3,18.9,4.9,19.3,4.3,19.3z M8,14.3
		c0,0.2-0.1,0.3-0.3,0.3H5.3c-0.2,0-0.3-0.1-0.3-0.3v-2.7c0-0.2,0.1-0.3,0.3-0.3h2.3c0.2,0,0.3,0.1,0.3,0.3V14.3z M11.7,14.3
		c0,0.2-0.1,0.3-0.3,0.3H9c-0.2,0-0.3-0.1-0.3-0.3v-2.7c0-0.2,0.1-0.3,0.3-0.3h2.3c0.2,0,0.3,0.1,0.3,0.3V14.3z M12.7,14.7
		c-0.2,0-0.3-0.1-0.3-0.3v-2.7c0-0.2,0.1-0.3,0.3-0.3H15c0.2,0,0.3,0.1,0.3,0.3v2.7c0,0.2-0.1,0.3-0.3,0.3H12.7z M15.7,19.3
		c-0.6,0-1-0.4-1-1c0-0.6,0.4-1,1-1c0.6,0,1,0.4,1,1C16.7,18.9,16.2,19.3,15.7,19.3z M16.3,14.7c-0.2,0-0.3-0.2-0.3-0.3v-2.7
		c0-0.2,0.1-0.3,0.3-0.3h0.4c0.6,0,1.2,0.4,1.5,0.9l1,2.3c0.1,0.1,0.1,0.2,0.1,0.4L16.3,14.7z"/>
</g>
</svg>
