<?xml version="1.0" encoding="utf-8"?>
<!-- Generator: Adobe Illustrator 19.0.0, SVG Export Plug-In . SVG Version: 6.00 Build 0)  -->
<svg version="1.1" xmlns="http://www.w3.org/2000/svg" xmlns:xlink="http://www.w3.org/1999/xlink" x="0px" y="0px"
	 viewBox="0 0 32 32" style="enable-background:new 0 0 32 32;" xml:space="preserve">
<style type="text/css">
	.st0{display:none;}
	.st1{display:inline;}
</style>
<g id="accommodation" class="st0">
	<path id="XMLID_16_" class="st1" d="M1.1,18.4h28.5c0.4,0,0.7-0.3,0.7-0.7c0-0.4-0.3-0.7-0.7-0.7H1.1c-0.4,0-0.7,0.3-0.7,0.7
		C0.4,18.1,0.7,18.4,1.1,18.4z"/>
	<path id="XMLID_15_" class="st1" d="M1,22.8h3.7v-1.3H1c-0.4,0-0.7,0.3-0.7,0.7C0.4,22.5,0.7,22.8,1,22.8z"/>
	<path id="XMLID_14_" class="st1" d="M1,29.4h3.8v-1.3H1c-0.4,0-0.7,0.3-0.7,0.7C0.3,29.1,0.6,29.4,1,29.4z"/>
	<path id="XMLID_13_" class="st1" d="M1,27.2h3.7v-1.3H1c-0.4,0-0.7,0.3-0.7,0.7C0.3,26.9,0.6,27.2,1,27.2z"/>
	<path id="XMLID_12_" class="st1" d="M1,25h3.7v-1.3H1c-0.4,0-0.7,0.3-0.7,0.7C0.4,24.7,0.7,25,1,25z"/>
	<rect id="XMLID_11_" x="11.1" y="23.7" class="st1" width="5.7" height="1.3"/>
	<path id="XMLID_29_" class="st1" d="M26.4,21c-3.1,0-5.5,2.5-5.5,5.5c0,3.1,2.5,5.5,5.5,5.5c3.1,0,5.5-2.5,5.5-5.5
		C31.9,23.5,29.4,21,26.4,21z M30.4,25.9c0,0.2-0.1,0.4-0.3,0.5c0,0-0.3,0.1-0.6,0.1c-0.4,0-1-0.1-1.4-0.5l-1,0.6l1.1,0.6
		c0.7-0.6,1.9-0.4,1.9-0.4c0.2,0,0.4,0.2,0.3,0.5c0,0.2-0.2,0.4-0.5,0.3c0,0-0.6-0.1-1,0.1l0.7,0.4c0.2,0.1,0.3,0.4,0.1,0.5
		c-0.1,0.1-0.2,0.2-0.3,0.2c-0.1,0-0.1,0-0.2-0.1l-0.8-0.4c0,0.5,0.5,1,0.5,1c0.1,0.2,0.1,0.4,0,0.6c-0.1,0.1-0.2,0.1-0.3,0.1
		c-0.1,0-0.2,0-0.3-0.1c0,0-0.9-1-0.6-1.9l-1-0.6v1.3c0.9,0.3,1.3,1.4,1.3,1.5c0.1,0.2,0,0.4-0.2,0.5c0,0-0.1,0-0.1,0
		c-0.2,0-0.3-0.1-0.4-0.3c0,0-0.2-0.6-0.6-0.8v0.8c0,0.2-0.2,0.4-0.4,0.4c-0.2,0-0.4-0.2-0.4-0.4v-0.9c-0.4,0.3-0.6,0.9-0.6,0.9
		c-0.1,0.2-0.3,0.3-0.5,0.3c-0.2-0.1-0.3-0.3-0.3-0.5c0-0.1,0.4-1.3,1.4-1.5v-1.3l-1,0.6c0.2,0.9-0.6,1.9-0.6,1.9
		c-0.1,0.1-0.2,0.1-0.3,0.1c-0.1,0-0.2,0-0.3-0.1c-0.2-0.1-0.2-0.4,0-0.6c0,0,0.4-0.5,0.4-1l-0.8,0.5c-0.1,0-0.1,0.1-0.2,0.1
		c-0.1,0-0.3-0.1-0.3-0.2c-0.1-0.2,0-0.4,0.1-0.5l0.8-0.5c-0.4-0.2-1-0.1-1-0.1c-0.2,0-0.4-0.1-0.5-0.3c0-0.2,0.1-0.4,0.3-0.5
		c0.1,0,1.3-0.3,2,0.4l1-0.6L24.6,26c-0.4,0.4-1,0.5-1.4,0.5c-0.3,0-0.5,0-0.5,0c-0.2,0-0.4-0.2-0.3-0.5c0-0.2,0.2-0.4,0.5-0.3
		c0,0,0.6,0.1,1.1-0.1L23,25.1c-0.2-0.1-0.3-0.4-0.1-0.5c0.1-0.2,0.4-0.3,0.5-0.1l0.8,0.5c-0.1-0.5-0.5-0.9-0.5-0.9
		c-0.1-0.2-0.1-0.4,0-0.6c0.2-0.1,0.4-0.1,0.6,0c0,0,0.9,1,0.6,1.9l1,0.6v-1.1c-0.9-0.3-1.4-1.4-1.4-1.5c-0.1-0.2,0-0.4,0.2-0.5
		c0.2-0.1,0.4,0,0.5,0.2c0,0,0.2,0.6,0.6,0.9v-1c0-0.2,0.2-0.4,0.4-0.4c0.2,0,0.4,0.2,0.4,0.4v1c0.4-0.3,0.6-0.8,0.6-0.9
		c0.1-0.2,0.3-0.3,0.5-0.3c0.2,0.1,0.3,0.3,0.3,0.5c0,0.1-0.4,1.2-1.3,1.5v1l1-0.6c-0.2-0.9,0.6-1.8,0.6-1.9c0.1-0.2,0.4-0.2,0.6,0
		c0.2,0.1,0.2,0.4,0,0.6c0,0-0.4,0.5-0.4,0.9l0.7-0.4c0.2-0.1,0.4,0,0.5,0.1c0.1,0.2,0,0.4-0.1,0.5l-0.7,0.4
		c0.4,0.2,1.1,0.1,1.1,0.1C30.2,25.5,30.4,25.7,30.4,25.9z"/>
	<path id="XMLID_8_" class="st1" d="M1.1,20.6h15.7c0-0.4,0.3-0.7,0.7-0.7h2.1v1.9h-2.8v-0.3h-5.7v1.3h5.7v-0.3h2.8v4h-2.1
		c-0.4,0-0.7-0.3-0.7-0.7h-5.7v1.3H20c0-0.2,0-0.4,0-0.6c0-0.7,0.1-1.4,0.3-2v-2.1h1.1c0.2-0.2,0.4-0.5,0.6-0.7h-1.7V20h2.1
		c0.4,0,0.7,0.3,0.7,0.7h0.6c0.9-0.4,1.8-0.6,2.8-0.6c1,0,2,0.2,2.8,0.6h0.2c0.4,0,0.7-0.3,0.7-0.7c0-0.4-0.3-0.7-0.7-0.7h-9.2h-0.7
		H1.1c-0.4,0-0.7,0.3-0.7,0.7C0.4,20.3,0.7,20.6,1.1,20.6z"/>
	<path id="XMLID_7_" class="st1" d="M11.1,28.1v1.3h9.7c-0.2-0.4-0.4-0.9-0.5-1.3L11.1,28.1L11.1,28.1z"/>
	<path id="XMLID_6_" class="st1" d="M1,31.6h21.4c-0.5-0.4-0.9-0.8-1.2-1.3H1c-0.4,0-0.7,0.3-0.7,0.7S0.6,31.6,1,31.6z"/>
	<path id="XMLID_20_" class="st1" d="M2.1,16.1h26.9c1.1,0,1.4-0.6,0.6-1.4l-5.2-5.3c0,0,0,0,0,0V4.6c0-1.3-0.8-2.4-1.9-2.4
		c-1,0-1.9,1.1-1.9,2.4v0.8l-3.7-3.8c-0.8-0.8-2-0.8-2.8,0l-12.6,13C0.7,15.4,1,16.1,2.1,16.1z M16.1,14.3l-0.4,0.3l0.2,0.5
		c0.1,0.2,0,0.2-0.2,0.1l-0.4-0.3l-0.4,0.3c-0.1,0.1-0.2,0.1-0.2-0.1l0.2-0.5l-0.4-0.3c-0.1-0.1-0.1-0.2,0.1-0.2H15l0.2-0.5
		c0.1-0.2,0.1-0.2,0.2,0l0.2,0.5h0.5C16.2,14.1,16.3,14.2,16.1,14.3z M19.8,14.1h0.5l0.2-0.5c0.1-0.2,0.1-0.2,0.2,0l0.2,0.5h0.5
		c0.2,0,0.2,0.1,0.1,0.2L21,14.6l0.2,0.5c0.1,0.2,0,0.2-0.2,0.1l-0.4-0.3l-0.4,0.3C20,15.3,19.9,15.2,20,15l0.2-0.5l-0.4-0.3
		C19.6,14.2,19.6,14.1,19.8,14.1z M12.9,6h1.3v2.3h2.2V6h1.3v6h-1.4V9.5h-2.2V12h-1.3V6z M9.3,14.1h0.5l0.2-0.5
		c0.1-0.2,0.1-0.2,0.2,0l0.2,0.5h0.5c0.2,0,0.2,0.1,0.1,0.2l-0.4,0.3l0.2,0.5c0.1,0.2,0,0.2-0.2,0.1L10,14.9l-0.4,0.3
		c-0.1,0.1-0.2,0.1-0.2-0.1l0.2-0.5l-0.4-0.3C9.1,14.2,9.1,14.1,9.3,14.1z"/>
	<g id="Layer_2" class="st1">
		<rect id="XMLID_22_" x="11.8" y="5" width="7.1" height="10.6"/>
		<rect id="XMLID_21_" x="7" y="12.5" width="15.8" height="3.1"/>
	</g>
</g>
<g id="Layer_3" class="st0">
	<g id="XMLID_26_" class="st1">
		<g id="XMLID_27_">
			<path id="XMLID_18_" d="M9.6,22.8l-3.9,1.4c-0.1,0.1-0.3,0.1-0.4,0.1c-0.5,0-1-0.3-1.1-0.8c-0.2-0.6,0.1-1.3,0.7-1.6l4.4-1.6
				c-0.9-1.3-2.3-2.1-4-2.1c-2.7,0-4.9,2.2-4.9,4.9S2.6,28,5.3,28c2.5,0,4.6-1.9,4.8-4.4C9.9,23.3,9.7,23.1,9.6,22.8z"/>
		</g>
	</g>
	<g id="XMLID_23_" class="st1">
		<g id="XMLID_24_">
			<path id="XMLID_17_" d="M27.1,18.3C27.1,18.3,27.1,18.3,27.1,18.3l1.2,4.5c0.2,0.6-0.2,1.3-0.8,1.5c-0.1,0-0.2,0-0.3,0
				c-0.5,0-1-0.4-1.2-0.9l-1.3-4.5C25.4,18.5,26.2,18.3,27.1,18.3l-1-3.3c0,0,0.1,0,0.1,0c0.3-0.1,0.5-0.4,0.4-0.8l-0.5-1.7
				c-0.1-0.3-0.4-0.5-0.8-0.4c0,0-0.1,0-0.1,0l-0.5-1.7c-0.1-0.5-0.5-0.8-1-0.9L20.8,9c-0.7-0.1-1.3,0.3-1.4,1
				c-0.1,0.7,0.3,1.3,1,1.4l2.3,0.4L23,13l-2.3,0.6c-0.3-0.3-0.8-0.5-1.2-0.3l-1.3,0.4c-0.4,0.1-0.7,0.4-0.8,0.8l-2.7,0.7l-9.2-2.1
				C4.9,13,4.2,13.4,4.1,14c-0.1,0.7,0.3,1.3,0.9,1.5l3.3,0.7l2.2,0.5l2.2,2.2c0.2,0.2,0.2,0.6,0,0.8l-2.1,2.5
				c0.4,0.6,0.9,1.4,1.3,1.4h6.8c0.8,0,1.5-0.3,2-0.8c0.5-0.5,0.8-1.3,0.8-2v-4.8l1.2-0.3l0.8-0.2l1,3.5c-0.8,0.4-1.4,1.1-1.8,1.8
				c-0.3,0.6-0.6,1.3-0.6,2.1c0,0.1,0,0.2,0,0.3c0,2.7,2.2,4.9,4.9,4.9s4.9-2.2,4.9-4.9S29.8,18.3,27.1,18.3z"/>
		</g>
	</g>
</g>
<g id="Layer_4" class="st0">
	<g id="XMLID_70_" class="st1">
		<g id="XMLID_71_">
			<path id="XMLID_72_" d="M9.8,22.8c-1.5,0-2.8,1.2-2.8,2.8s1.2,2.8,2.8,2.8s2.8-1.2,2.8-2.8S11.3,22.8,9.8,22.8z M9.8,27.1
				c-0.8,0-1.5-0.7-1.5-1.5s0.7-1.5,1.5-1.5s1.5,0.7,1.5,1.5S10.6,27.1,9.8,27.1z"/>
		</g>
	</g>
	<g id="XMLID_63_" class="st1">
		<g id="XMLID_64_">
			<path id="XMLID_65_" d="M28.6,9.9h-3.2c-0.3,0-0.6,0.3-0.6,0.6c0,0.3,0.3,0.6,0.6,0.6h3.2c1,0,1.8,0.7,2.1,1.6h-5.3
				c-0.3,0-0.6,0.3-0.6,0.6V19c0,0.3,0.3,0.6,0.6,0.6h5.4V25h-1.8c-0.3-1.2-1.4-2.1-2.7-2.1s-2.4,0.9-2.7,2.1h-0.1V13.4
				c0-0.3-0.3-0.6-0.6-0.6h-5c-0.3,0-0.6,0.3-0.6,0.6v5H5.6c-0.3,0-0.6,0.3-0.6,0.6s0.3,0.6,0.6,0.6h11.6V25h-3.2
				c-0.3,0-0.6,0.3-0.6,0.6s0.3,0.6,0.6,0.6h9.5c0.3,1.2,1.4,2.1,2.7,2.1s2.4-0.9,2.7-2.1h2.5c0.3,0,0.6-0.3,0.6-0.6V13.4
				C32,11.5,30.5,9.9,28.6,9.9z M22.3,18.9h-0.4c-0.3,0-0.6,0.3-0.6,0.6s0.3,0.6,0.6,0.6h0.4V25h-3.8V14h3.8V18.9z M26.2,27.1
				c-0.8,0-1.5-0.7-1.5-1.5s0.7-1.5,1.5-1.5s1.5,0.7,1.5,1.5S27.1,27.1,26.2,27.1z M30.8,18.4H26V14h4.8V18.4z"/>
		</g>
	</g>
	<g id="XMLID_56_" class="st1">
		<path id="XMLID_57_" d="M20.4,9.9h-17c-1.7,0-3.1,1.3-3.4,2.9c0,0.1,0,0.1,0,0.2v12.5c0,0.3,0.3,0.6,0.6,0.6h4.7
			c0.3,0,0.6-0.3,0.6-0.6S5.7,25,5.3,25H1.3v-7.8h2.1c0.3,0,0.6-0.3,0.6-0.6v-3.5c0-0.3-0.3-0.6-0.6-0.6H1.5c0.3-0.7,1.1-1.3,2-1.3
			h17c0.3,0,0.6-0.3,0.6-0.6C21,10.2,20.7,9.9,20.4,9.9z M2.8,13.7v2.3H1.3v-2.3H2.8z"/>
	</g>
	<g id="XMLID_52_" class="st1">
		<g id="XMLID_53_">
			<path id="XMLID_31_" d="M3.8,18.6c-0.1-0.1-0.3-0.2-0.4-0.2S3,18.5,2.9,18.6s-0.2,0.3-0.2,0.4c0,0.2,0.1,0.3,0.2,0.4
				c0.1,0.1,0.3,0.2,0.4,0.2s0.3-0.1,0.4-0.2C3.9,19.4,4,19.2,4,19.1S3.9,18.7,3.8,18.6z"/>
		</g>
	</g>
	<g id="XMLID_47_" class="st1">
		<g id="XMLID_48_">
			<path id="XMLID_49_" d="M15.4,12.4h-3.5c-0.3,0-0.6,0.3-0.6,0.6v3.5c0,0.3,0.3,0.6,0.6,0.6h3.5c0.3,0,0.6-0.3,0.6-0.6v-3.5
				C16,12.7,15.7,12.4,15.4,12.4z M14.8,15.9h-2.3v-2.3h2.3V15.9z"/>
		</g>
	</g>
	<g id="XMLID_42_" class="st1">
		<g id="XMLID_43_">
			<path id="XMLID_44_" d="M9.4,12.4H5.9c-0.3,0-0.6,0.3-0.6,0.6v3.5c0,0.3,0.3,0.6,0.6,0.6h3.5c0.3,0,0.6-0.3,0.6-0.6v-3.5
				C10,12.7,9.7,12.4,9.4,12.4z M8.8,15.9H6.5v-2.3h2.3V15.9z"/>
		</g>
	</g>
	<rect id="XMLID_34_" x="18.2" y="9.9" class="st1" width="8" height="1.3"/>
</g>
<g id="Layer_5">
	<path id="XMLID_60_" d="M8.3,23c-0.5,0-1,0.4-1,1c0,0.5,0.4,1,1,1c0.5,0,1-0.4,1-1C9.3,23.5,8.9,23,8.3,23z"/>
	<path id="XMLID_59_" d="M22.6,23c-0.5,0-1,0.4-1,1c0,0.5,0.4,1,1,1s1-0.4,1-1C23.6,23.5,23.2,23,22.6,23z"/>
	<path id="XMLID_62_" d="M26.3,15.7h-1l-2-3.3c-1.2-2-3.4-3.2-5.7-3.2c-4.8,0-8.8,0-8.8,0C5,9.4,2.2,11.7,1,14.7
		c-1.2,3.1-1,5.3-1,7.7c0,1.1,0.9,2,2,2h2C4.3,26.4,6,28,8,28c2,0,3.7-1.5,4-3.5h1.4c0.1,0-0.3,0,5.2,0c0.2,2,1.9,3.5,4,3.5
		s3.7-1.5,4-3.5H30c1.1,0,2-0.9,2-2v-1C32,18.3,29.4,15.7,26.3,15.7L26.3,15.7z M5.9,14.8c0.3-1.5,1.7-2.6,3.2-2.6h1.4v3.5H6.3
		c-0.2,0-0.3-0.1-0.4-0.2C5.7,15.3,5.8,15.1,5.9,14.8L5.9,14.8z M8,27c-1.7,0-3-1.3-3-3c0-1.7,1.3-3,3-3s3,1.3,3,3
		C11,25.6,9.7,27,8,27z M16,19.2h-1c-0.3,0-0.5-0.2-0.5-0.5s0.2-0.5,0.5-0.5h1c0.3,0,0.5,0.2,0.5,0.5C16.5,19,16.3,19.2,16,19.2z
		 M16.9,15.7h-5.4v-3.5h5.4V15.7z M17.9,15.7v-3.5h3.9c0.4,0.5,0.4,0.5,2.2,3.5H17.9z M22.5,27c-1.7,0-3-1.3-3-3c0-1.7,1.3-3,3-3
		c1.7,0,3,1.3,3,3C25.5,25.6,24.2,27,22.5,27z M29.5,21c-0.3,0-0.5-0.2-0.5-0.5s0.2-0.5,0.5-0.5h1.3c0.1,0.3,0.2,0.7,0.2,1H29.5z"/>
</g>
</svg>
