<?xml version="1.0" encoding="utf-8"?>
<!-- Generator: Adobe Illustrator 19.0.0, SVG Export Plug-In . SVG Version: 6.00 Build 0)  -->
<svg version="1.1" id="Layer_1" xmlns="http://www.w3.org/2000/svg" xmlns:xlink="http://www.w3.org/1999/xlink" x="0px" y="0px"
	 viewBox="2 -2 20 20" style="enable-background:new 2 -2 20 20;" xml:space="preserve">
<path d="M9.7,5.3c0,0,1.1-0.8,1.9-0.7c0.8,0.2,8.5,3.1,9.2,3.6s0.7,0.2,0.9,0.9c0.1,0.7,0.4,5.4,0.4,5.4H10.5L10,6.2L9.7,5.3z"/>
<path d="M12.5,5.3c0,0-0.9-0.8-1.6-0.7C10.1,4.8,3.6,7.7,3,8.3S2.4,8.5,2.3,9.2S2,14.6,2,14.6h9.7l0.4-8.4L12.5,5.3z"/>
<g id="Layer_2">
	<rect x="11.3" y="3.2" width="1.2" height="2.2"/>
	<path d="M19.9,1.1c-0.4-0.3-1-0.3-1.4,0c0.1,0,0.3,0.1,0.4,0.2c0.5,0.3,0.6,1,0.3,1.5c-0.2,0.3-0.6,0.5-1,0.5
		c0.1,0.1,0.1,0.1,0.2,0.2c0.6,0.4,1.4,0.2,1.8-0.4C20.7,2.3,20.5,1.5,19.9,1.1z"/>
</g>
</svg>
