<?xml version="1.0" encoding="utf-8"?>
<!-- Generator: Adobe Illustrator 19.0.0, SVG Export Plug-In . SVG Version: 6.00 Build 0)  -->
<svg version="1.1" id="Layer_1" xmlns="http://www.w3.org/2000/svg" xmlns:xlink="http://www.w3.org/1999/xlink" x="0px" y="0px"
	 viewBox="2 -2 20 20" style="enable-background:new 2 -2 20 20;" xml:space="preserve">
<g>
	<g>
		<path d="M19.1,7.6H9.4c-0.5,0-1.3,0.2-1.3,1.5v2h12.3v-2C20.4,7.8,19.6,7.6,19.1,7.6z"/>
	</g>
</g>
<g>
	<g>
		<polygon points="5.3,11.5 3.3,11.5 3.3,4.6 2,4.6 2,18.1 3.3,18.1 3.3,14.6 20.7,14.6 20.7,18 22,18 22,11.5 		"/>
	</g>
</g>
<g>
	<g>
		<circle cx="5.5" cy="9.4" r="1.8"/>
	</g>
</g>
<polygon points="18.7,12 20.7,12 20.7,5.5 22,5.5 22,18.1 20.7,18.1 20.7,14.8 3.3,14.8 3.3,18 2,18 2,12 "/>
</svg>
