<?xml version="1.0" encoding="utf-8"?>
<!-- Generator: Adobe Illustrator 19.0.0, SVG Export Plug-In . SVG Version: 6.00 Build 0)  -->
<svg version="1.1" id="accommodation" xmlns="http://www.w3.org/2000/svg" xmlns:xlink="http://www.w3.org/1999/xlink" x="0px"
	 y="0px" viewBox="0 0 32 32" style="enable-background:new 0 0 32 32;" xml:space="preserve">
<path id="XMLID_16_" d="M1.1,18.4h28.5c0.4,0,0.7-0.3,0.7-0.7c0-0.4-0.3-0.7-0.7-0.7H1.1c-0.4,0-0.7,0.3-0.7,0.7
	C0.4,18.1,0.7,18.4,1.1,18.4z"/>
<path id="XMLID_15_" d="M1,22.8h3.7v-1.3H1c-0.4,0-0.7,0.3-0.7,0.7C0.4,22.5,0.7,22.8,1,22.8z"/>
<path id="XMLID_14_" d="M1,29.4h3.8v-1.3H1c-0.4,0-0.7,0.3-0.7,0.7C0.3,29.1,0.6,29.4,1,29.4z"/>
<path id="XMLID_13_" d="M1,27.2h3.7v-1.3H1c-0.4,0-0.7,0.3-0.7,0.7C0.3,26.9,0.6,27.2,1,27.2z"/>
<path id="XMLID_12_" d="M1,25h3.7v-1.3H1c-0.4,0-0.7,0.3-0.7,0.7C0.4,24.7,0.7,25,1,25z"/>
<rect id="XMLID_11_" x="11.1" y="23.7" width="5.7" height="1.3"/>
<path id="XMLID_29_" d="M26.4,21c-3.1,0-5.5,2.5-5.5,5.5c0,3.1,2.5,5.5,5.5,5.5c3.1,0,5.5-2.5,5.5-5.5C31.9,23.5,29.4,21,26.4,21z
	 M30.4,25.9c0,0.2-0.1,0.4-0.3,0.5c0,0-0.3,0.1-0.6,0.1c-0.4,0-1-0.1-1.4-0.5l-1,0.6l1.1,0.6c0.7-0.6,1.9-0.4,1.9-0.4
	c0.2,0,0.4,0.2,0.3,0.5c0,0.2-0.2,0.4-0.5,0.3c0,0-0.6-0.1-1,0.1l0.7,0.4c0.2,0.1,0.3,0.4,0.1,0.5c-0.1,0.1-0.2,0.2-0.3,0.2
	c-0.1,0-0.1,0-0.2-0.1l-0.8-0.4c0,0.5,0.5,1,0.5,1c0.1,0.2,0.1,0.4,0,0.6c-0.1,0.1-0.2,0.1-0.3,0.1c-0.1,0-0.2,0-0.3-0.1
	c0,0-0.9-1-0.6-1.9l-1-0.6v1.3c0.9,0.3,1.3,1.4,1.3,1.5c0.1,0.2,0,0.4-0.2,0.5c0,0-0.1,0-0.1,0c-0.2,0-0.3-0.1-0.4-0.3
	c0,0-0.2-0.6-0.6-0.8v0.8c0,0.2-0.2,0.4-0.4,0.4c-0.2,0-0.4-0.2-0.4-0.4v-0.9c-0.4,0.3-0.6,0.9-0.6,0.9c-0.1,0.2-0.3,0.3-0.5,0.3
	c-0.2-0.1-0.3-0.3-0.3-0.5c0-0.1,0.4-1.3,1.4-1.5v-1.3l-1,0.6c0.2,0.9-0.6,1.9-0.6,1.9c-0.1,0.1-0.2,0.1-0.3,0.1
	c-0.1,0-0.2,0-0.3-0.1c-0.2-0.1-0.2-0.4,0-0.6c0,0,0.4-0.5,0.4-1l-0.8,0.5c-0.1,0-0.1,0.1-0.2,0.1c-0.1,0-0.3-0.1-0.3-0.2
	c-0.1-0.2,0-0.4,0.1-0.5l0.8-0.5c-0.4-0.2-1-0.1-1-0.1c-0.2,0-0.4-0.1-0.5-0.3c0-0.2,0.1-0.4,0.3-0.5c0.1,0,1.3-0.3,2,0.4l1-0.6
	L24.6,26c-0.4,0.4-1,0.5-1.4,0.5c-0.3,0-0.5,0-0.5,0c-0.2,0-0.4-0.2-0.3-0.5c0-0.2,0.2-0.4,0.5-0.3c0,0,0.6,0.1,1.1-0.1L23,25.1
	c-0.2-0.1-0.3-0.4-0.1-0.5c0.1-0.2,0.4-0.3,0.5-0.1l0.8,0.5c-0.1-0.5-0.5-0.9-0.5-0.9c-0.1-0.2-0.1-0.4,0-0.6c0.2-0.1,0.4-0.1,0.6,0
	c0,0,0.9,1,0.6,1.9l1,0.6v-1.1c-0.9-0.3-1.4-1.4-1.4-1.5c-0.1-0.2,0-0.4,0.2-0.5c0.2-0.1,0.4,0,0.5,0.2c0,0,0.2,0.6,0.6,0.9v-1
	c0-0.2,0.2-0.4,0.4-0.4c0.2,0,0.4,0.2,0.4,0.4v1c0.4-0.3,0.6-0.8,0.6-0.9c0.1-0.2,0.3-0.3,0.5-0.3c0.2,0.1,0.3,0.3,0.3,0.5
	c0,0.1-0.4,1.2-1.3,1.5v1l1-0.6c-0.2-0.9,0.6-1.8,0.6-1.9c0.1-0.2,0.4-0.2,0.6,0c0.2,0.1,0.2,0.4,0,0.6c0,0-0.4,0.5-0.4,0.9l0.7-0.4
	c0.2-0.1,0.4,0,0.5,0.1c0.1,0.2,0,0.4-0.1,0.5l-0.7,0.4c0.4,0.2,1.1,0.1,1.1,0.1C30.2,25.5,30.4,25.7,30.4,25.9z"/>
<path id="XMLID_8_" d="M1.1,20.6h15.7c0-0.4,0.3-0.7,0.7-0.7h2.1v1.9h-2.8v-0.3h-5.7v1.3h5.7v-0.3h2.8v4h-2.1
	c-0.4,0-0.7-0.3-0.7-0.7h-5.7v1.3H20c0-0.2,0-0.4,0-0.6c0-0.7,0.1-1.4,0.3-2v-2.1h1.1c0.2-0.2,0.4-0.5,0.6-0.7h-1.7V20h2.1
	c0.4,0,0.7,0.3,0.7,0.7h0.6c0.9-0.4,1.8-0.6,2.8-0.6c1,0,2,0.2,2.8,0.6h0.2c0.4,0,0.7-0.3,0.7-0.7c0-0.4-0.3-0.7-0.7-0.7h-9.2h-0.7
	H1.1c-0.4,0-0.7,0.3-0.7,0.7C0.4,20.3,0.7,20.6,1.1,20.6z"/>
<path id="XMLID_7_" d="M11.1,28.1v1.3h9.7c-0.2-0.4-0.4-0.9-0.5-1.3L11.1,28.1L11.1,28.1z"/>
<path id="XMLID_6_" d="M1,31.6h21.4c-0.5-0.4-0.9-0.8-1.2-1.3H1c-0.4,0-0.7,0.3-0.7,0.7S0.6,31.6,1,31.6z"/>
<path id="XMLID_20_" d="M2.1,16.1h26.9c1.1,0,1.4-0.6,0.6-1.4l-5.2-5.3c0,0,0,0,0,0V4.6c0-1.3-0.8-2.4-1.9-2.4c-1,0-1.9,1.1-1.9,2.4
	v0.8l-3.7-3.8c-0.8-0.8-2-0.8-2.8,0l-12.6,13C0.7,15.4,1,16.1,2.1,16.1z M16.1,14.3l-0.4,0.3l0.2,0.5c0.1,0.2,0,0.2-0.2,0.1
	l-0.4-0.3l-0.4,0.3c-0.1,0.1-0.2,0.1-0.2-0.1l0.2-0.5l-0.4-0.3c-0.1-0.1-0.1-0.2,0.1-0.2H15l0.2-0.5c0.1-0.2,0.1-0.2,0.2,0l0.2,0.5
	h0.5C16.2,14.1,16.3,14.2,16.1,14.3z M19.8,14.1h0.5l0.2-0.5c0.1-0.2,0.1-0.2,0.2,0l0.2,0.5h0.5c0.2,0,0.2,0.1,0.1,0.2L21,14.6
	l0.2,0.5c0.1,0.2,0,0.2-0.2,0.1l-0.4-0.3l-0.4,0.3C20,15.3,19.9,15.2,20,15l0.2-0.5l-0.4-0.3C19.6,14.2,19.6,14.1,19.8,14.1z
	 M12.9,6h1.3v2.3h2.2V6h1.3v6h-1.4V9.5h-2.2V12h-1.3V6z M9.3,14.1h0.5l0.2-0.5c0.1-0.2,0.1-0.2,0.2,0l0.2,0.5h0.5
	c0.2,0,0.2,0.1,0.1,0.2l-0.4,0.3l0.2,0.5c0.1,0.2,0,0.2-0.2,0.1L10,14.9l-0.4,0.3c-0.1,0.1-0.2,0.1-0.2-0.1l0.2-0.5l-0.4-0.3
	C9.1,14.2,9.1,14.1,9.3,14.1z"/>
<g id="Layer_2">
	<rect id="XMLID_22_" x="11.8" y="5" width="7.1" height="10.6"/>
	<rect id="XMLID_21_" x="7" y="12.5" width="15.8" height="3.1"/>
</g>
</svg>
