<svg height="512" viewBox="0 0 60 58" width="512" xmlns="http://www.w3.org/2000/svg"><g id="Page-1" fill="none" fill-rule="evenodd"><g id="015---Teepee" fill="rgb(0,0,0)" fill-rule="nonzero"><path id="Shape" d="m9.428 10.687c-.26939765-.0633858-.54524599-.0952661-.822-.095-1.30243247-.0216914-2.51532046.6607295-3.172879 1.7851927-.65755853 1.1244633-.65755853 2.5161513 0 3.6406146.65755854 1.1244632 1.87044653 1.8068841 3.172879 1.7851927h8.394c1.6031095-.0081049 3.0465217-.9725564 3.6675011-2.4505315.6209793-1.4779751.2995542-3.1839328-.8166946-4.334591-1.1162488-1.15065818-2.8116649-1.52371274-4.3078065-.9478775-.5866216-1.25113486-1.8992679-1.99552073-3.2741113-1.85670901-1.3748435.13881173-2.5121999 1.13056327-2.8368887 2.47370901z"/><path id="Shape" d="m45 12.606h8.39c1.3886798.0017362 2.6549651-.7941028 3.2556724-2.0461352.6007072-1.25203251.4290845-2.73775923-.4412492-3.81986537-.8703338-1.08210615-2.2847111-1.56829018-3.6364232-1.24999943-.3249558-1.34302398-1.4624431-2.33451882-2.8372537-2.47310225-1.3748107-.13858343-2.6872928.60595-3.2737463 1.85710225-1.4963511-.57712572-3.1927407-.20470557-4.3097369.94614642s-1.4386123 2.85760248-.8170768 4.33605928c.6215354 1.4784568 2.0660397 2.4427397 3.6698137 2.4497943z"/><path id="Shape" d="m37.09.47c-.1782438-.29807456-.5027786-.47752322-.85-.47-.3806852-.0045581-.7303953.20915363-.9.55l-4.22 8.45 1.12 2.24 4.9-9.79c.154193-.31327822.1352765-.68404165-.05-.98z"/><path id="Shape" d="m25.59 25c.3736892-.3744562.8809811-.5848881 1.41-.5848881s1.0363108.2104319 1.41.5848881l1.59 1.58 1.59-1.58c.3736892-.3744562.8809811-.5848881 1.41-.5848881s1.0363108.2104319 1.41.5848881l1.59 1.59 1.12-1.12-7.12-14.23-7.12 14.23 1.12 1.12z"/><path id="Shape" d="m22.47 53.49 6.53-14.7v-.04l-10.79 9.62c2.1747359.9034056 3.7671106 2.8172456 4.26 5.12z"/><path id="Shape" d="m27.76 11.24 1.12-2.24-4.22-8.45c-.1696047-.34084637-.5193148-.5545581-.9-.55-.3472214-.00752322-.6717562.17192544-.85.47-.1852765.29595835-.204193.66672178-.05.98z"/><path id="Shape" d="m59 56h-3v-5c0-.5522847-.4477153-1-1-1s-1 .4477153-1 1v5h-1.62l-14.32-28.65-.65.65c-.7800749.7754472-2.0399251.7754472-2.82 0l-1.59-1.59-1.59 1.59c-.1208643.1227217-.2589853.2271547-.41.31v10.17c.01.12.02.23.02.34l7.63 17.18h-2.19l-6.46-14.54-6.46 14.54h-2.61c-.19-1.66-.88-4.87-3.4-5.76-.663046-.225363-1.1525831-.7913902-1.28-1.48-.1408538-.6942094.0992921-1.4108352.63-1.88l10.81-9.63c.3605677-.3216874.8267901-.4996349 1.31-.5v-8.44c-.1510147-.0828453-.2891357-.1872783-.41-.31l-1.59-1.59-1.59 1.59c-.3736892.3744562-.8809811.5848881-1.41.5848881s-1.0363108-.2104319-1.41-.5848881l-.65-.65-14.32 28.65h-1.62v-5c0-.5522847-.44771525-1-1-1s-1 .4477153-1 1v5h-3c-.55228475 0-1 .4477153-1 1s.44771525 1 1 1h58c.5522847 0 1-.4477153 1-1s-.4477153-1-1-1zm-26-25c-.5522847 0-1-.4477153-1-1s.4477153-1 1-1 1 .4477153 1 1-.4477153 1-1 1zm-6-2c.5522847 0 1 .4477153 1 1s-.4477153 1-1 1-1-.4477153-1-1 .4477153-1 1-1z"/></g></g></svg>