<?xml version="1.0" encoding="utf-8"?>
<!-- Generator: Adobe Illustrator 19.0.0, SVG Export Plug-In . SVG Version: 6.00 Build 0)  -->
<svg version="1.1" id="Layer_1" xmlns="http://www.w3.org/2000/svg" xmlns:xlink="http://www.w3.org/1999/xlink" x="0px" y="0px"
	 viewBox="0 0 180.2 108.5" style="enable-background:new 0 0 180.2 108.5;" xml:space="preserve">
<style type="text/css">
	.st0{fill:#BC212F;stroke:#BC212F;stroke-miterlimit:10;}
	.st1{fill:#23428F;stroke:#23428F;stroke-miterlimit:10;}
	.st2{fill:#FFFFFF;}
</style>
<g id="XMLID_1_">
	<path id="XMLID_87_" class="st0" d="M171.6,0.5H68.7c-2.9,0-6.1,2.2-7.2,4.9L33,74.3c-2.5,6.1,0.7,11.2,7.2,11.2h102.9
		c2.9,0,6.1-2.2,7.2-4.9l28.4-68.9C181.3,5.5,178.1,0.5,171.6,0.5z"/>
	<path id="XMLID_86_" class="st1" d="M139.9,23H37c-2.9,0-6.1,2.2-7.2,4.9L1.4,96.8C-1.2,103,2.1,108,8.6,108h102.9
		c2.9,0,6.1-2.2,7.2-4.9l28.4-68.9C149.7,28,146.4,23,139.9,23z"/>
	<path id="XMLID_85_" class="st0" d="M168.8,22.5h-63.2c-1.8,0-4.7,1.5-6.6,3.2L51.6,71.2c-4.2,4-4.4,7.4-0.4,7.4h63.2
		c1.8,0,4.7-1.5,6.6-3.2l47.4-45.4C172.6,25.8,172.8,22.5,168.8,22.5z"/>
	<g id="XMLID_82_">
		<path id="XMLID_83_" class="st2" d="M138.9,57.2l-3.4,8.1l-3.4,8l-3.2,7.9l-3.4,8l-4.2-0.4l-6.1-0.5c-3-0.2-5.9-0.4-8.5-0.5
			c-2.6-0.1-4.2-0.2-4.6-0.2H29.7l0.6-3.5l71-61L78.2,23h-7.6c-1.3,0-2.3,0.1-3.2,0.2c-0.9,0.1-2.7,0.6-5.3,1.3
			c-4.5,1.1-7.7,3.1-9.7,5.9L51.9,31l-0.2,0.3l-8.4-0.8l2.1-4.4l2.1-4.6l2.2-4.7l2.2-4.7c11.5,0,22.1,0.1,31.9,0.4
			c9.8,0.2,21.2,0.5,34.1,0.8c12.9,0.3,22,0.4,27.2,0.4l-0.3,1.6L71.4,78.5h21.3h3.7c6.7-0.6,12.1-1.9,16.2-4
			c4.1-2.1,8.7-5.9,13.9-11.5l2.5-2.9l1.2-1.3l1.3-1.7H138.9z"/>
	</g>
</g>
</svg>
