<?xml version="1.0" encoding="utf-8"?>
<!-- Generator: Adobe Illustrator 19.0.0, SVG Export Plug-In . SVG Version: 6.00 Build 0)  -->
<svg version="1.1" id="Layer_1" xmlns="http://www.w3.org/2000/svg" xmlns:xlink="http://www.w3.org/1999/xlink" x="0px" y="0px"
	 viewBox="0 0 667.4 121.6" style="enable-background:new 0 0 667.4 121.6;" xml:space="preserve">
<style type="text/css">
	.st0{fill:#BC212F;stroke:#BC212F;stroke-miterlimit:10;}
	.st1{fill:#23428F;stroke:#23428F;stroke-miterlimit:10;}
	.st2{fill:#FFFFFF;}
	.st3{fill:#23428F;}
	.st4{fill:#BC212F;}
</style>
<g id="XMLID_1_">
	<path class="st0" d="M171.8,0.5H68.9c-2.9,0-6.1,2.2-7.2,4.9L33.3,74.3c-2.5,6.1,0.7,11.2,7.2,11.2h102.9c2.9,0,6.1-2.2,7.2-4.9
		L179,11.6C181.6,5.5,178.3,0.5,171.8,0.5z"/>
	<path class="st1" d="M140.2,23H37.2c-2.9,0-6.1,2.2-7.2,4.9L1.6,96.8C-0.9,103,2.3,108,8.8,108h102.9c2.9,0,6.1-2.2,7.2-4.9
		l28.4-68.9C149.9,28,146.7,23,140.2,23z"/>
	<path class="st0" d="M169,22.5h-63.2c-1.8,0-4.7,1.5-6.6,3.2L51.9,71.1c-4.2,4-4.4,7.4-0.4,7.4h63.2c1.8,0,4.7-1.5,6.6-3.2
		l47.4-45.4C172.8,25.8,173,22.5,169,22.5z"/>
	<g>
		<path class="st2" d="M139.2,57.1l-3.4,8.1l-3.4,8l-3.2,7.9l-3.4,8l-4.2-0.4l-6.1-0.5c-3-0.2-5.9-0.4-8.5-0.5
			c-2.6-0.1-4.2-0.2-4.6-0.2H29.9l0.6-3.5l71-61L78.4,23h-7.6c-1.3,0-2.3,0.1-3.2,0.2c-0.9,0.1-2.7,0.6-5.3,1.3
			c-4.5,1.1-7.7,3.1-9.7,5.9l-0.4,0.5l-0.2,0.3l-8.4-0.8l2.1-4.4l2.1-4.6l2.2-4.7L52,12c11.5,0,22.1,0.1,31.9,0.4
			c9.8,0.2,21.2,0.5,34.1,0.8c12.9,0.3,22,0.4,27.2,0.4l-0.3,1.6L71.7,78.5H93h3.7c6.7-0.6,12.1-1.9,16.2-4
			c4.1-2.1,8.7-5.9,13.9-11.5l2.5-2.9l1.2-1.3l1.3-1.7H139.2z"/>
	</g>
	<path class="st3" d="M220.7,80.5l-3.3,1.9l-5.9,3c-3.8,1.9-6.4,2.8-7.9,2.8c-1.1,0-2.6-0.6-4.3-1.8c-0.8-0.6-1.7-1.7-2.7-3.4
		l-0.7-1c-1,0.7-2.2,1.4-3.4,2c-1.3,0.7-2.4,1.2-3.4,1.7c-4.5,1.8-8.6,2.7-12.2,2.7c-2.4,0-4.6-0.4-6.4-1.2
		c-1.8-0.8-3.3-1.9-4.4-3.4c-1.6-2-2.4-4.6-2.4-7.7c0-1,0-1.7,0.1-2.3c0.4-4.5,2.1-7.9,5-10.3c3.2-2.7,8.4-4.6,15.7-5.8l2.4-0.4
		l1-0.1l5.4-0.5c2.1-0.2,3.4-0.9,4-2.1c0.1-0.4,0.2-1,0.3-1.9l-0.1-2.9l-0.2-1.8c-0.4-3.7-2.2-5.5-5.2-5.5c-1.7,0-3.9,0.5-6.8,1.6
		c-5.2,2-9,5.3-11.6,9.9l-5.1-1.2l1.3-13.5c2.9-0.9,5.5-1.6,7.7-2c2.2-0.4,4.9-0.6,8.3-0.6h4.9l2.5-0.2l4,0.2c7.2,0,12,1.2,14.4,3.5
		c2.4,2.4,3.6,7.1,3.6,14.1v3.8v11.5c0,3.4,1.3,5.5,3.8,6.3l1.2,0.2L220.7,80.5z M196.7,63.6l-4.9,0.4l-0.8,0.1l-1.1,0.3
		c-4.4,1.3-6.6,3.5-6.6,6.6c0,4,2.1,6.1,6.3,6.1l0.9-0.1h0.4l0.9-0.3c3.3-1,4.9-3.4,4.9-7.1V63.6z"/>
	<path class="st3" d="M265.6,44.7h-0.4c-1.6,0.1-3,1-4.2,2.7c-1.2,1.7-2.8,5-4.8,10.1l-3.9,10.5c-1.3,3.6-2.6,6.9-3.7,9.7
		s-2.4,5.8-3.8,8.8h-9.7l-15.3-36.7l-0.7-1.4c-1.6-2.5-3.3-3.8-5.1-3.8h-0.3h-0.4v-6.5c3.8,0,7.7,0,11.5,0.1
		c3.8,0.1,7.7,0.2,11.6,0.3l7.9-0.4v6.5h-0.9c-2,0-3,1-3,3.1c0,0.4,0.1,0.8,0.2,1.5c0.1,0.6,0.3,1.3,0.5,2.1l0.4,1.2l5.5,13.4
		l0.8-2.6l0.7-2.2l1.4-4.8l1.1-3.7l0.3-0.9v-0.4l0.5-1.8c0.2-0.8,0.3-1.6,0.3-2.2c0-1.7-1.2-2.5-3.6-2.5h-0.8h-0.4v-6.5l8.6,0.4
		c0.6,0,1,0,1.3,0c3.1,0,5.9-0.1,8.5-0.4V44.7z"/>
	<path class="st3" d="M319.6,77.8l-0.1,8.8h-5.5l-2.8-0.3c-5.2-0.6-8.7-1.2-10.6-2c-1.9-0.8-4.1-2.6-6.6-5.4l-4.4-5.9l-4.4-6.3
		l-1.2,1v5.9v1c0.3,2.8,1.6,4.4,3.9,5l1.5,0.3h0.4h0.7l0.6,0.4v6.3l-7.3-0.3c-3.9,0-8.9,0.1-14.9,0.2c-6,0.1-9.1,0.2-9.2,0.2v-6.5
		l1.2-0.2l1.7-0.4c1.5-0.4,2.4-1,2.7-1.9c0.3-0.8,0.4-3.1,0.4-6.9V33.5c0-4-0.1-6.6-0.4-7.7c-0.3-1.1-1-2.1-2.3-2.9l-0.8-0.3
		l-0.4-0.1l-1.5-0.4l-0.5-0.1v-6.4c7-0.8,13.7-1.9,20.1-3.4h6c-0.5,2.7-0.9,5.1-1.1,7.4c-0.2,2.3-0.4,4.5-0.4,6.8v7.4V57l4.6-4
		l3.5-3l2.5-2.2c0.3-0.3,0.5-0.8,0.5-1.4c0-0.5-0.2-0.9-0.6-1.3c-0.4-0.4-0.9-0.7-1.6-0.9c-0.7-0.2-1.3-0.2-1.8-0.1l-0.1-6H319v6.4
		h-0.7h-0.5h-1.2c-4.3,0.6-7.4,1.3-9.1,2.2c-1.7,0.9-4.6,3.4-8.5,7.3l-2.2,2.1l12.5,15.3c1.3,1.5,2.4,2.5,3.5,3.2
		c2.3,1.4,3.8,2.3,4.4,2.6C317.9,77.6,318.6,77.8,319.6,77.8z"/>
	<path class="st3" d="M381.5,86.6l-7.2-0.3c-3.8,0-7.6,0-11.4,0.1c-3.8,0.1-7.7,0.1-11.5,0.2v-6.5L352,80h0.6h0.4l1-0.3
		c1.5-0.5,2.5-1.3,3-2.4c0.5-1.1,0.7-3.2,0.7-6.4V56.1V54v-1.5c0-1.9-0.5-3.2-1.4-4c-1-0.8-2.6-1.2-4.8-1.2c-4.7,0-7.4,2.7-8.1,8.1
		v1.2v14.3v4.6V76c0,1.8,1.1,3,3.2,3.7l1.4,0.3h0.3h0.6l0.7,0.2v6.4c-1.7,0-4.6-0.1-8.7-0.2c-4.1-0.1-6.3-0.2-6.6-0.2
		c-1.7,0-4.2,0.1-7.6,0.2c-3.4,0.1-6,0.2-7.8,0.2v-6.5l0.8-0.1h0.7l1.8-0.4c1-0.3,1.7-0.6,2.1-1.1c0.4-0.4,0.5-1.3,0.5-2.5V72v-1.1
		V33.6v-6.1v-0.4c-0.2-1.7-1-3-2.5-4c-1.4-1-2.6-1.4-3.4-1.1v-6.4c5-0.5,10.2-1.3,15.5-2.4l4.4-1h6.9c-0.8,2.7-1.4,5.4-1.8,8
		c-0.4,2.6-0.5,5.9-0.5,9.8v12.9l0.8-0.7c1.3-1,2.4-1.8,3.6-2.5c1.1-0.7,2.5-1.2,4.2-1.6c3.8-1.1,7.3-1.7,10.3-1.7
		c5,0,8.6,1.7,10.8,5.2c2.2,3.5,3.3,9,3.3,16.4v12.9c0,3.7,0.1,6,0.4,6.8c0.2,0.8,1,1.5,2.4,2l0.7,0.3l1.6,0.2V86.6z"/>
	<path class="st3" d="M437.4,80.5l-3.3,1.9l-5.9,3c-3.8,1.9-6.4,2.8-7.9,2.8c-1.1,0-2.6-0.6-4.3-1.8c-0.8-0.6-1.7-1.7-2.7-3.4
		l-0.7-1c-1,0.7-2.2,1.4-3.4,2c-1.3,0.7-2.4,1.2-3.4,1.7c-4.5,1.8-8.6,2.7-12.2,2.7c-2.4,0-4.6-0.4-6.4-1.2
		c-1.8-0.8-3.3-1.9-4.4-3.4c-1.6-2-2.4-4.6-2.4-7.7c0-1,0-1.7,0.1-2.3c0.4-4.5,2.1-7.9,5-10.3c3.2-2.7,8.4-4.6,15.7-5.8l2.4-0.4
		l1-0.1l5.4-0.5c2.1-0.2,3.4-0.9,4-2.1c0.1-0.4,0.2-1,0.3-1.9l-0.1-2.9l-0.2-1.8c-0.4-3.7-2.2-5.5-5.2-5.5c-1.7,0-3.9,0.5-6.8,1.6
		c-5.2,2-9,5.3-11.6,9.9l-5.1-1.2l1.3-13.5c2.9-0.9,5.5-1.6,7.7-2c2.2-0.4,4.9-0.6,8.3-0.6h4.9l2.5-0.2l4,0.2c7.2,0,12,1.2,14.4,3.5
		c2.4,2.4,3.6,7.1,3.6,14.1v3.8v11.5c0,3.4,1.3,5.5,3.8,6.3l1.2,0.2L437.4,80.5z M413.3,63.6l-4.9,0.4l-0.8,0.1l-1.1,0.3
		c-4.4,1.3-6.6,3.5-6.6,6.6c0,4,2.1,6.1,6.3,6.1L407,77h0.4l0.9-0.3c3.3-1,4.9-3.4,4.9-7.1V63.6z"/>
	<path class="st3" d="M497.9,86.5l-15-0.3c-1.7,0-4.7,0.1-8.9,0.2c-4.2,0.1-6.4,0.2-6.7,0.2v-6.3l0.6-0.1h0.6h0.4l0.9-0.3
		c1.5-0.5,2.4-1.2,2.8-2.3c0.4-1,0.6-3.2,0.6-6.6V58.7v-3.9v-2.4c-0.1-1.4-0.7-2.5-1.7-3.4c-1-0.8-2.2-1.3-3.7-1.3
		c-0.9,0-1.9,0.2-2.9,0.5c-1,0.4-2.4,1.3-4.1,2.8l-0.7,0.6L460,52l-0.7,0.7V71v5.2c-0.1,1,0.4,1.9,1.7,2.8l1.8,0.8l1.6,0.3h0.3h0.8
		l0.3,6.4c-1.7,0-4.5-0.1-8.4-0.2c-3.9-0.1-6-0.2-6.3-0.2c-2.5,0-5.4,0.1-8.8,0.2c-3.4,0.1-6.1,0.2-8.3,0.3v-6.3l1.8-0.1l0.4-0.2
		l1-0.2c1.4-0.5,2.3-1.2,2.7-2.3s0.6-3.2,0.6-6.6V59.1v-6.3V52c-0.3-1.4-0.6-2.3-1-2.7c-0.4-0.4-1.1-0.7-2.3-1.1l-1.7-0.5l-1.6-0.1
		v-6.4c7.3-0.6,14.6-1.6,21.9-3h5.1l-0.2,0.8c-0.3,1.1-0.5,2.1-0.5,2.9v1.3l0.6-0.6l1.2-0.8c1.2-0.9,2.2-1.6,3-2
		c0.8-0.5,1.8-0.9,2.8-1.3c4-1.5,7.5-2.2,10.6-2.2c4.3,0,7.7,1.3,10,3.8c2.3,2.6,3.5,5.9,3.5,9.9v7v13.9v5c0,0.6,0.2,1.2,0.5,1.7
		c0.6,1.2,1.8,2,3.7,2.5h0.7h0.5h0.4V86.5z"/>
	<path class="st4" d="M514,70.8c2,2,2.9,4.4,2.9,7.3c0,2.8-1,5.2-3,7.2s-4.5,2.9-7.4,2.9c-2.7,0-5-1-7-2.9c-2-2-3-4.3-3-6.9
		c0-2.9,1-5.4,2.9-7.5c2-2.1,4.4-3.2,7.2-3.2C509.6,67.6,512.1,68.7,514,70.8z"/>
	<path class="st3" d="M607.3,86.6h-28.5v-6.4h0.4h0.3h0.5l1.2-0.3c1.4-0.4,2.3-1.1,2.6-2.1c0.3-1,0.5-3.3,0.5-6.9V58v-3.6v-2.1
		c0-1.2-0.6-2.2-1.8-3.1c-1.2-0.9-2.6-1.4-4.1-1.4c-0.9,0-1.8,0.2-2.6,0.6c-1.9,0.8-3.2,1.7-3.9,2.7c-0.7,1-1.1,2-1.1,2.9v16.8v4V76
		c0,1.2,0.2,2,0.7,2.6c0.5,0.5,1.4,1,2.6,1.3h1.6l0.6,0.3h0.8v6.4c-1.6,0-4.3-0.1-8.1-0.2c-3.8-0.1-5.8-0.2-6.1-0.2
		c-1.8,0-4.8,0.1-9,0.2s-6.4,0.2-6.7,0.2v-6.3l0.5-0.1h0.4l0.5-0.3h1.4c2-0.6,3-1.8,3-3.8v-1.7v-3.5V56.2c0-1,0-1.6,0-2
		c0-1.2-0.1-2.4-0.4-3.6c-0.3-1.2-0.9-2.2-1.8-2.9c-0.9-0.7-2.1-1-3.4-1c-1.5,0-3.1,0.6-4.6,1.7l-1.5,1.1c-1.1,1.1-1.7,2.1-1.7,3
		v18.3v2.1c0,2.8,0.2,4.6,0.5,5.3c0.3,0.7,1.3,1.3,2.7,1.6l1.9,0.3h1v6.4c-2.1,0-4.9-0.1-8.5-0.2s-5.7-0.2-6.4-0.2
		c-2.6,0-5.2,0-7.8,0s-5.2,0-7.8,0v-6.2l1.3-0.2h0.4l1.5-0.3c1.5-0.4,2.4-1.1,2.8-2.1c0.4-1.1,0.6-3.3,0.6-6.8V60.3v-5.5V54v-1.2
		c-0.2-1.3-0.5-2.1-0.9-2.5c-0.4-0.4-1.2-0.7-2.3-1l-1.5-0.3l-0.5-0.1l-0.5-0.1l-0.8-0.1v-6.5c5.4-1.4,10.8-2.5,16.1-3.4l4.6-0.7
		h5.1l-0.2,0.4l-0.2,0.7c-0.3,1-0.5,1.9-0.5,2.6v2.1l1-1.1c2.1-2.3,4.8-4,8.1-5.1c2.5-0.8,4.9-1.2,7.1-1.2c3.4,0,6.2,0.7,8.6,2.2
		c2.4,1.5,4,3.4,4.7,5.6l0.3,1.2l0.8-0.9l0.8-0.8c1-1,2-1.8,3-2.5l2.7-1.9c3.4-2,6.8-2.9,10.2-2.9c3.5,0,6.5,0.9,8.9,2.8
		c2.4,1.9,3.9,4.4,4.5,7.6c0.3,1.6,0.5,3,0.5,4.2l0.3,6.6v13v4.9c0,2,1,3.4,2.9,4.1h1l0.3,0.3h0.5h0.4V86.6z"/>
	<path class="st3" d="M667.4,86.5l-15-0.3c-1.7,0-4.7,0.1-8.9,0.2c-4.2,0.1-6.4,0.2-6.7,0.2v-6.3l0.6-0.1h0.6h0.4l0.9-0.3
		c1.5-0.5,2.4-1.2,2.8-2.3c0.4-1,0.6-3.2,0.6-6.6V58.7v-3.9v-2.4c-0.1-1.4-0.7-2.5-1.7-3.4c-1-0.8-2.2-1.3-3.7-1.3
		c-0.9,0-1.9,0.2-2.9,0.5c-1,0.4-2.4,1.3-4.1,2.8l-0.7,0.6l-0.3,0.3l-0.7,0.7V71v5.2c-0.1,1,0.4,1.9,1.7,2.8l1.8,0.8l1.6,0.3h0.3
		h0.8l0.3,6.4c-1.7,0-4.5-0.1-8.4-0.2c-3.9-0.1-6-0.2-6.3-0.2c-2.5,0-5.4,0.1-8.8,0.2c-3.4,0.1-6.1,0.2-8.3,0.3v-6.3l1.8-0.1
		l0.4-0.2l1-0.2c1.4-0.5,2.3-1.2,2.7-2.3s0.6-3.2,0.6-6.6V59.1v-6.3V52c-0.3-1.4-0.6-2.3-1-2.7c-0.4-0.4-1.1-0.7-2.3-1.1l-1.7-0.5
		l-1.6-0.1v-6.4c7.3-0.6,14.6-1.6,21.9-3h5.1l-0.2,0.8c-0.3,1.1-0.5,2.1-0.5,2.9v1.3l0.6-0.6l1.2-0.8c1.2-0.9,2.2-1.6,3-2
		c0.8-0.5,1.8-0.9,2.8-1.3c4-1.5,7.5-2.2,10.6-2.2c4.3,0,7.7,1.3,10,3.8c2.3,2.6,3.5,5.9,3.5,9.9v7v13.9v5c0,0.6,0.2,1.2,0.5,1.7
		c0.6,1.2,1.8,2,3.7,2.5h0.7h0.5h0.4V86.5z"/>
	<g>
		<path class="st4" d="M183.9,106.4c0,5.7-3.2,9.3-8.2,9.3c-5,0-8.3-3.7-8.3-9.4c0-5.7,3.3-9.4,8.3-9.4
			C180.7,96.9,183.9,100.6,183.9,106.4z M168.9,106.3c0,5,2.7,8.2,6.9,8.2c4.1,0,6.7-3.2,6.7-8.1c0-5-2.7-8.3-6.8-8.3
			C171.6,98.1,168.9,101.4,168.9,106.3z"/>
		<path class="st4" d="M191.9,101.6c1.1-3.1,3.4-4.7,6.6-4.7c4.8,0,7.9,3.7,7.9,9.5c0,5.7-3.2,9.4-7.9,9.4c-3.3,0-5.7-1.7-6.6-4.6
			v10.4h-1.4V97.4h1.3V101.6z M191.9,106.4c0,4.1,1.9,8.2,6.6,8.2c4,0,6.5-3.3,6.5-8.2c0-5.1-2.5-8.3-6.6-8.3
			C194.4,98.1,191.9,101.2,191.9,106.4z"/>
		<path class="st4" d="M228.8,106.4c0,5.7-3.2,9.3-8.2,9.3c-5,0-8.3-3.7-8.3-9.4c0-5.7,3.3-9.4,8.3-9.4
			C225.6,96.9,228.8,100.6,228.8,106.4z M213.7,106.3c0,5,2.7,8.2,6.9,8.2c4.1,0,6.7-3.2,6.7-8.1c0-5-2.7-8.3-6.8-8.3
			C216.5,98.1,213.7,101.4,213.7,106.3z"/>
		<path class="st4" d="M248,106.3h-11.3v8.8h-1.4V97.4h1.4v7.7H248v-7.7h1.4v17.8H248V106.3z"/>
		<path class="st4" d="M282.6,106.3h-11.3v8.8h-1.4V97.4h1.4v7.7h11.3v-7.7h1.4v17.8h-1.4V106.3z"/>
		<path class="st4" d="M297.2,117c-1,2.7-1.7,4.5-4.9,4.5c-0.3,0-1,0-1.4-0.1v-1.2c0.6,0.1,0.8,0.1,1.1,0.1c1.7,0,2.5-0.7,3.2-2.3
			c0,0,0.8-1.9,1.2-2.9l-7.5-17.7h1.6l5.9,13.9c0.3,0.7,0.3,0.9,0.8,2.2c0.4-1.2,0.6-1.8,0.8-2.4l5.3-13.7h1.5L297.2,117z"/>
		<path class="st4" d="M316.7,115.1h-1.4V98.6h-6.7v-1.2h14.9v1.2h-6.7V115.1z"/>
		<path class="st4" d="M330.6,115.1h-1.4V97.4H341v1.2h-10.4V115.1z"/>
		<path class="st4" d="M359.2,99.2L359.2,99.2l-11,16h-1.7V97.4h1.4v16h0l11-16h1.7v17.8h-1.4V99.2z"/>
		<path class="st4" d="M380.6,99.2L380.6,99.2l-11,16h-1.7V97.4h1.4v16h0l11-16h1.7v17.8h-1.4V99.2z M375.1,94.6
			c-2.6,0-4.5-1.6-4.9-4.2h1.1c0.6,2.3,2.2,3,3.7,3c1.7,0,3.2-1.2,3.4-3h1.1C379.4,92.7,377.4,94.6,375.1,94.6z"/>
		<path class="st4" d="M402.1,106.3h-11.3v8.8h-1.4V97.4h1.4v7.7h11.3v-7.7h1.4v17.8h-1.4V106.3z"/>
		<path class="st4" d="M438.9,115.1h-15V97.4h1.4v16.6h11.3V97.4h1.4v16.6h2.3v6.8h-1.4V115.1z"/>
		<path class="st4" d="M461.4,115c-0.5,0.2-0.9,0.2-1.4,0.2c-1.6,0-2-0.7-2-3v-0.9c-1.5,2.9-3.5,4.3-6.9,4.3c-3.7,0-5.9-1.8-5.9-5
			c0-4,3.4-5.2,6.8-5.4c4.6-0.4,5.2-0.5,5.7-1.2c0.2-0.3,0.2-1,0.2-1.8c0-2.7-1.8-4.1-5-4.1c-3.3,0-5.1,1.6-5.4,4.8h-1.3
			c0.2-3.9,2.7-5.9,6.8-5.9c2.3,0,4.2,0.7,5.3,1.9c1,1.2,1,2.6,1,4.1v9.2c0,1,0,1.9,1.3,1.9c0.3,0,0.5,0,0.9-0.1V115z M456.7,105.7
			c-2.6,0.8-5.4,0.4-7.9,1.5c-1.3,0.6-2.1,1.8-2.1,3.3c0,2.4,1.8,3.9,4.6,3.9c3.8,0,6.6-2.6,6.6-6.2v-3.1
			C457.5,105.5,457.3,105.6,456.7,105.7z"/>
		<path class="st4" d="M473.5,105.8l7.1,9.4h-1.8l-6.2-8.3l-6.2,8.3h-1.7l7-9.3l-6.5-8.5h1.8l5.6,7.4l5.7-7.4h1.7L473.5,105.8z"/>
		<path class="st4" d="M498.5,99.2L498.5,99.2l-11,16h-1.7V97.4h1.4v16h0l11-16h1.7v17.8h-1.4V99.2z"/>
		<path class="st4" d="M508.6,115.1h-1.4V97.4h2.2l6.8,16.1l6.8-16.1h2.2v17.8h-1.4V98.6h-0.1l-6.8,16.5h-1.5l-6.8-16.5h-0.1V115.1z
			"/>
		<path class="st4" d="M552.3,105.8l7.1,9.4h-1.8l-6.2-8.3l-6.2,8.3h-1.7l7-9.3l-6.5-8.5h1.8l5.6,7.4l5.7-7.4h1.7L552.3,105.8z"/>
		<path class="st4" d="M571.2,115.7c-4.1,0-6.9-2.4-7.5-6.5h1.4c0.6,3.3,2.9,5.3,6.2,5.3c4,0,6.6-3.2,6.7-8.1h-9.5v-1.2h9.5
			c-0.3-4.4-3-7.2-6.9-7.2c-3.1,0-5.3,1.8-5.8,4.5h-1.4c0.6-3.6,3.2-5.7,7.2-5.7c5.1,0,8.3,3.7,8.3,9.5
			C579.4,111.4,576.6,115.7,571.2,115.7z"/>
		<path class="st4" d="M585.9,115.1V97.4h7.6c3.1,0,6.2,1,6.2,4.4c0,2.1-1.5,3.6-3.8,3.9v0c2.6,0.2,4.2,1.9,4.2,4.2
			c0,3.5-3.1,5.2-6.6,5.2H585.9z M587.4,98.6v6.6h5.2c2.1,0,5.7-0.6,5.7-3.4c0-2.3-2.7-3.2-5-3.2H587.4z M587.4,106.4v7.6h5.9
			c3.1,0,5.4-1.4,5.4-4c0-3-3.4-3.6-6.1-3.6H587.4z"/>
		<path class="st4" d="M619.1,98.6h-8.3l-0.3,9.5c-0.2,5.1-1.7,7.4-4.1,7.4c-0.6,0-1.5-0.2-2-0.3v-1.2c0.5,0.2,1.2,0.4,1.9,0.4
			c1.9,0,2.7-2.6,2.8-6.3l0.4-10.6h11v17.8h-1.4V98.6z"/>
		<path class="st4" d="M634.5,115.7c-4.1,0-6.9-2.4-7.5-6.5h1.4c0.6,3.3,2.9,5.3,6.2,5.3c4,0,6.6-3.2,6.7-8.1h-9.5v-1.2h9.5
			c-0.3-4.4-3-7.2-6.9-7.2c-3.1,0-5.3,1.8-5.8,4.5h-1.4c0.6-3.6,3.2-5.7,7.2-5.7c5.1,0,8.3,3.7,8.3,9.5
			C642.6,111.4,639.9,115.7,634.5,115.7z"/>
		<path class="st4" d="M661.2,98.6h-8.3l-0.3,9.5c-0.2,5.1-1.7,7.4-4.1,7.4c-0.6,0-1.5-0.2-2-0.3v-1.2c0.5,0.2,1.2,0.4,1.9,0.4
			c1.9,0,2.7-2.6,2.8-6.3l0.4-10.6h11v17.8h-1.4V98.6z"/>
	</g>
</g>
</svg>
