<svg id="icons" enable-background="new 0 0 64 64" viewBox="0 0 64 64" xmlns="http://www.w3.org/2000/svg"><path d="m1 7.005h62v53.99h-62z" fill="#fff"/><path d="m14.01 16.005h10.01c1.1 0 2 .9 2 2v6.029h-14.01v-6.029c0-1.1.899-2 2-2z" fill="#fff"/><path d="m21 35.964 1.01-.959-2 6h-2.01l-1.99-6 .99.959 2-.959z" fill="#94c1ff"/><path d="m28.01 37.995v3.01h-8l2-6h3c1.66 0 3 1.34 3 2.99z" fill="#fff"/><path d="m19.01 33.005c1.069 0 2.09-.24 3-.68v2.68l-1.01.959-2-.959-2 .959-.99-.959v-2.68c.91.44 1.929.68 3 .68z" fill="#94c1ff"/><path d="m32 45.005c1.659 0 3 1.34 3 3 0 1.65-1.341 3-3 3-1.66 0-3-1.35-3-3 0-1.66 1.34-3 3-3z" fill="#94c1ff"/><path d="m12.52 45.005c1.66 0 3 1.34 3 3 0 1.65-1.34 3-3 3s-3-1.35-3-3c0-1.66 1.339-3 3-3z" fill="#94c1ff"/><path d="m16.01 35.005 1.99 6h-7.99v-3.01c0-1.65 1.34-2.99 3-2.99z" fill="#fff"/><path d="m12.01 24.034h14.01l-.01 1.971c0 2.789-1.63 5.199-4 6.32-.91.439-1.931.68-3 .68-1.07 0-2.09-.24-3-.68-2.36-1.121-4-3.531-4-6.32z" fill="#d7e9ff"/><path d="m51.479 45.005c1.66 0 3 1.34 3 3 0 1.65-1.34 3-3 3s-3-1.35-3-3c0-1.66 1.34-3 3-3z" fill="#94c1ff"/><path d="m63 7.005h-62v-2c0-1.11.89-2 2-2h58c1.1 0 2 .89 2 2z" fill="#d7e9ff"/><path d="m16.01 35.005h-3c-1.66 0-3 1.34-3 2.99v3.01h-4.99v-29.99h54v29.99h-31.01v-3.01c0-1.65-1.34-2.99-3-2.99h-3v-2.68c2.37-1.121 4-3.531 4-6.32l.01-1.971v-6.029c0-1.1-.9-2-2-2h-10.01c-1.101 0-2 .9-2 2v6.029 1.971c0 2.789 1.64 5.199 4 6.32z" fill="#94c1ff"/><g fill="#116fff"><path d="m4.026 6.002c-.553 0-1.005-.448-1.005-1s.442-1 .994-1h.011c.552 0 1 .448 1 1s-.448 1-1 1z"/><path d="m7.026 6.002c-.553 0-1.005-.448-1.005-1s.442-1 .994-1h.011c.552 0 1 .448 1 1s-.448 1-1 1z"/><path d="m10.026 6.002c-.553 0-1.005-.448-1.005-1s.442-1 .994-1h.011c.552 0 1 .448 1 1s-.448 1-1 1z"/><path d="m63.004 61.998h-62c-.553 0-1-.447-1-1v-53.996c0-.552.447-1 1-1h62c.553 0 1 .448 1 1v53.996c0 .553-.447 1-1 1zm-61-2h60v-51.996h-60v51.996z"/><path d="m.996 6.002c-.553 0-1-.448-1-1 0-1.654 1.346-3 3-3 .553 0 1 .448 1 1s-.447 1-1 1c-.552 0-1 .449-1 1 0 .553-.447 1-1 1z"/><path d="m.996 8.002c-.553 0-1-.448-1-1v-2c0-.552.447-1 1-1s1 .448 1 1v2c0 .553-.447 1-1 1z"/><path d="m62.996 6.002c-.553 0-1-.448-1-1 0-.551-.448-1-1-1-.553 0-1-.448-1-1s.447-1 1-1c1.654 0 3 1.346 3 3 0 .553-.447 1-1 1z"/><path d="m62.996 8.002c-.553 0-1-.448-1-1v-2c0-.552.447-1 1-1s1 .448 1 1v2c0 .553-.447 1-1 1z"/><path d="m60.996 4.002h-58c-.553 0-1-.448-1-1s.447-1 1-1h58c.553 0 1 .448 1 1s-.447 1-1 1z"/><path d="m19.016 55.016h-12.995c-.553 0-1-.447-1-1s.447-1 1-1h12.994c.553 0 1 .447 1 1s-.447 1-.999 1z"/><path d="m58.014 55.016h-12.994c-.553 0-1-.447-1-1s.447-1 1-1h12.994c.553 0 1 .447 1 1s-.448 1-1 1z"/><path d="m38.502 55.016h-12.994c-.553 0-1-.447-1-1s.447-1 1-1h12.994c.553 0 1 .447 1 1s-.447 1-1 1z"/><path d="m35.52 58.016h-7.031c-.553 0-1-.447-1-1s.447-1 1-1h7.031c.553 0 1 .447 1 1s-.448 1-1 1z"/><path d="m55.02 58.016h-7.006c-.553 0-1-.447-1-1s.447-1 1-1h7.006c.553 0 1 .447 1 1s-.448 1-1 1z"/><path d="m16.02 58.016h-6.999c-.553 0-1-.447-1-1s.447-1 1-1h6.998c.553 0 1 .447 1 1s-.447 1-.999 1z"/><path d="m59.02 42.01h-54c-.553 0-1-.447-1-1v-29.992c0-.552.447-1 1-1h54c.553 0 1 .448 1 1v29.992c0 .553-.448 1-1 1zm-53-2h52v-27.992h-52z"/><path d="m54.008 22.007h-19.998c-.553 0-1-.448-1-1s.447-1 1-1h19.998c.553 0 1 .448 1 1s-.447 1-1 1z"/><path d="m54.008 25.015h-19.998c-.553 0-1-.448-1-1s.447-1 1-1h19.998c.553 0 1 .448 1 1s-.447 1-1 1z"/><path d="m44.008 28.022h-9.998c-.553 0-1-.448-1-1s.447-1 1-1h9.998c.553 0 1 .448 1 1s-.447 1-1 1z"/><path d="m40.004 33.014h-5.992c-.553 0-1-.447-1-1s.447-1 1-1h5.992c.553 0 1 .448 1 1s-.447 1-1 1z"/><path d="m43.998 32.015h-1.004c-.553 0-1-.448-1-1s.447-1 1-1h1.004c.553 0 1 .448 1 1s-.447 1-1 1z"/><path d="m43.999 34.016c-.366 0-.72-.202-.895-.552l-1.004-2c-.248-.494-.049-1.095.445-1.342.495-.247 1.096-.048 1.342.445l1.004 2c.248.494.049 1.095-.445 1.342-.143.072-.297.107-.447.107z"/><path d="m43.998 34.016h-1c-.553 0-1-.447-1-1 0-.552.447-1 1-1h1c.553 0 1 .448 1 1s-.447 1-1 1z"/><path d="m10.012 39c-.553 0-1-.447-1-1 0-2.204 1.794-3.998 4-3.998.553 0 1 .447 1 1s-.447 1-1 1c-1.103 0-2 .896-2 1.998 0 .553-.448 1-1 1z"/><path d="m16.013 36.008h-3.001c-.553 0-1-.447-1-1s.447-1 1-1h3.001c.553 0 1 .447 1 1s-.448 1-1 1z"/><path d="m10.012 42.033c-.553 0-1-.447-1-1v-3.033c0-.553.447-1 1-1s1 .447 1 1v3.033c0 .553-.448 1-1 1z"/><path d="m28.014 39c-.553 0-1-.447-1-1 0-1.102-.897-1.998-2-1.998-.553 0-1-.447-1-1s.447-1 1-1c2.206 0 4 1.794 4 3.998 0 .553-.448 1-1 1z"/><path d="m25.014 36.008h-3.001c-.553 0-1-.447-1-1s.447-1 1-1h3.001c.553 0 1 .447 1 1s-.448 1-1 1z"/><path d="m28.014 42.033c-.553 0-1-.447-1-1v-3.033c0-.553.447-1 1-1s1 .447 1 1v3.033c0 .553-.448 1-1 1z"/><path d="m16.013 36.008c-.553 0-1-.447-1-1v-2.685c0-.552.447-1 1-1s1 .448 1 1v2.685c0 .553-.448 1-1 1z"/><path d="m22.013 36.002c-.553 0-1-.447-1-1v-2.679c0-.552.447-1 1-1s1 .448 1 1v2.679c0 .553-.448 1-1 1z"/><path d="m19.013 34.006c-4.411 0-8-3.589-8-8 0-.552.447-1 1-1s1 .448 1 1c0 3.309 2.691 6 6 6s6-2.692 6-6c0-.552.447-1 1-1s1 .448 1 1c0 4.411-3.589 8-8 8z"/><path d="m12.013 27.005c-.553 0-1-.448-1-1v-1.965c0-.552.447-1 1-1s1 .448 1 1v1.966c0 .552-.448.999-1 .999z"/><path d="m26.013 27.005c-.554 0-1.001-.449-1-1.001l.002-1.965c.001-.552.448-.999 1-.999h.001c.553 0 1 .449.999 1.001l-.002 1.965c-.001.552-.449.999-1 .999z"/><path d="m26.016 25.041h-14.003c-.553 0-1-.448-1-1v-6.039c0-1.654 1.346-3 3-3h10.003c1.654 0 3 1.346 3 3v6.039c0 .552-.448 1-1 1zm-13.003-2h12.003v-5.039c0-.551-.448-1-1-1h-10.003c-.552 0-1 .449-1 1z"/><path d="m19 23.014c-.553 0-1-.448-1-1v-4.012c0-.552.447-1 1-1s1 .448 1 1v4.012c0 .552-.447 1-1 1z"/><path d="m21.001 21.021h-4.002c-.553 0-1-.448-1-1s.447-1 1-1h4.002c.553 0 1 .448 1 1s-.447 1-1 1z"/><path d="m17 36.971c-.252 0-.504-.095-.698-.284l-.987-.963c-.396-.386-.403-1.019-.018-1.414.387-.396 1.02-.401 1.414-.018l.987.963c.396.386.403 1.019.018 1.414-.196.201-.456.302-.716.302z"/><path d="m17.001 36.971c-.371 0-.729-.207-.901-.564-.24-.497-.032-1.095.465-1.336l2-.969c.497-.239 1.096-.032 1.336.465s.032 1.095-.465 1.336l-2 .969c-.14.066-.29.099-.435.099z"/><path d="m21 36.971c-.146 0-.294-.032-.435-.1l-2.001-.969c-.497-.241-.705-.839-.465-1.336.24-.496.838-.704 1.336-.465l2.001.969c.497.241.705.839.465 1.336-.172.357-.529.565-.901.565z"/><path d="m21.001 36.971c-.264 0-.527-.104-.725-.311-.381-.4-.365-1.033.035-1.414l1.012-.963c.398-.379 1.031-.365 1.414.035.381.4.365 1.033-.035 1.414l-1.012.963c-.193.184-.441.276-.689.276z"/><path d="m20 42.033c-.104 0-.212-.017-.316-.052-.524-.175-.807-.741-.632-1.265l2.013-6.025c.174-.523.742-.809 1.265-.632.524.175.807.741.632 1.265l-2.013 6.025c-.14.42-.53.684-.949.684z"/><path d="m18 42.01c-.42 0-.811-.266-.949-.686l-1.987-6.002c-.174-.524.11-1.09.635-1.264.523-.172 1.091.11 1.264.635l1.987 6.002c.174.524-.11 1.09-.635 1.264-.105.034-.211.051-.315.051z"/><path d="m12.519 52.004c-2.206 0-4-1.794-4-4s1.794-4 4-4 4 1.794 4 4-1.794 4-4 4zm0-6c-1.103 0-2 .897-2 2s.897 2 2 2 2-.897 2-2-.898-2-2-2z"/><path d="m32 52.004c-2.206 0-4-1.794-4-4s1.794-4 4-4 4 1.794 4 4-1.794 4-4 4zm0-6c-1.103 0-2 .897-2 2s.897 2 2 2 2-.897 2-2-.897-2-2-2z"/><path d="m51.481 52.004c-2.206 0-4-1.794-4-4s1.794-4 4-4 4 1.794 4 4-1.793 4-4 4zm0-6c-1.103 0-2 .897-2 2s.897 2 2 2 2-.897 2-2-.897-2-2-2z"/></g></svg>