<svg height="512pt" viewBox="-30 0 512 512" width="512pt" xmlns="http://www.w3.org/2000/svg"><path d="m397.363281 92.242188h-342.578125v242.445312h342.578125zm-106.085937 127.929687-115.199219 67.453125c-10.023437 5.867188-22.667969-1.390625-22.667969-13.003906v-134.894532c0-11.59375 12.625-18.878906 22.667969-13l115.199219 67.453126c9.917968 5.796874 9.949218 20.171874 0 25.992187zm0 0"/><path d="m0 379.863281v117.078125c0 8.316406 6.742188 15.058594 15.058594 15.058594h422.027344c8.316406 0 15.058593-6.742188 15.058593-15.058594v-117.078125c0-8.316406-6.742187-15.058593-15.058593-15.058593h-422.027344c-8.316406 0-15.058594 6.742187-15.058594 15.058593zm159.914062 102.582031c0 8.320313-6.746093 15.058594-15.058593 15.058594s-15.058594-6.738281-15.058594-15.058594v-48.8125l-11.304687 12.570313c-5.949219 6.640625-16.386719 6.683594-22.398438 0l-11.300781-12.570313v48.8125c0 8.320313-6.738281 15.058594-15.0625 15.058594-8.3125 0-15.058594-6.738281-15.058594-15.058594v-88.09375c0-13.761718 17.070313-20.316406 26.265625-10.058593l26.363281 29.324219 26.351563-29.324219c9.230468-10.273438 26.261718-3.679688 26.261718 10.058593zm72.453126-18.554687h-18.921876v18.554687c0 8.320313-6.738281 15.058594-15.058593 15.058594-8.3125 0-15.0625-6.738281-15.0625-15.058594v-88.09375c0-8.3125 6.75-15.058593 15.0625-15.058593h33.980469c23.320312 0 42.304687 18.972656 42.304687 42.304687 0 23.320313-18.984375 42.292969-42.304687 42.292969zm150.046874 0h-5v18.011719c0 8.3125-6.746093 15.058594-15.058593 15.058594s-15.058594-6.746094-15.058594-15.058594v-18.011719h-41.351563c-9.742187 0-16.988281-9.179687-14.605468-18.703125l13.300781-53.386719c2.007813-8.070312 10.179687-12.980469 18.25-10.972656s12.980469 10.179687 10.972656 18.25c-2.324219 9.328125-.601562 2.414063-8.644531 34.695313h22.078125c0-14.484376 0-25.265626 0-38.882813 0-8.308594 6.746094-15.058594 15.058594-15.058594s15.058593 6.75 15.058593 15.058594v38.882813h5c8.3125 0 15.058594 6.738281 15.058594 15.058593 0 8.3125-6.746094 15.058594-15.058594 15.058594zm0 0"/><path d="m183.527344 248.359375 70.34375-41.179687-70.34375-41.191407zm0 0"/><path d="m91.488281 0h-21.644531c-8.316406 0-15.058594 6.742188-15.058594 15.058594v47.0625h59.601563zm0 0"/><path d="m260.558594 62.121094-22.910156-62.121094h-46.058594l22.90625 62.121094zm0 0"/><path d="m397.363281 62.121094v-47.0625c0-8.316406-6.742187-15.058594-15.058593-15.058594h-44.546876l22.902344 62.121094zm0 0"/><path d="m328.5625 62.121094-22.898438-62.121094h-35.921874l22.910156 62.121094zm0 0"/><path d="m182.402344 62.121094-22.910156-62.121094h-35.910157l22.898438 62.121094zm0 0"/><path d="m232.367188 409.410156h-18.921876v24.363282h18.921876c6.714843 0 12.1875-5.460938 12.1875-12.175782 0-6.71875-5.472657-12.1875-12.1875-12.1875zm0 0"/></svg>