<?xml version="1.0" encoding="utf-8"?>
<!-- Generator: Adobe Illustrator 19.0.0, SVG Export Plug-In . SVG Version: 6.00 Build 0)  -->
<svg version="1.1" id="Layer_1" xmlns="http://www.w3.org/2000/svg" xmlns:xlink="http://www.w3.org/1999/xlink" x="0px" y="0px"
	 viewBox="0 0 40 40" style="enable-background:new 0 0 40 40;" xml:space="preserve">
<style type="text/css">
	.st0{fill:#010101;}
</style>
<path id="XMLID_2_" class="st0" d="M34.1,25.9c-2.2-2.2-4.8-3.8-7.6-4.8c3-2.1,5-5.6,5-9.5C31.6,5.2,26.4,0,20,0S8.4,5.2,8.4,11.6
	c0,3.9,2,7.4,5,9.5c-2.8,1-5.4,2.6-7.6,4.8C2.1,29.6,0,34.6,0,40h3.1c0-9.3,7.6-16.9,16.9-16.9S36.9,30.7,36.9,40H40
	C40,34.7,37.9,29.6,34.1,25.9z M20,20c-4.7,0-8.4-3.8-8.4-8.4s3.8-8.4,8.4-8.4s8.4,3.8,8.4,8.4S24.7,20,20,20z"/>
</svg>
